<svg width="146" height="178" viewBox="0 0 146 178" fill="none" xmlns="http://www.w3.org/2000/svg">
<path d="M0.710939 43.3196V129.006C0.7106 129.284 0.770775 129.558 0.887281 129.811C1.00379 130.063 1.17383 130.287 1.38557 130.466C1.59732 130.646 1.84568 130.778 2.1134 130.852C2.38112 130.926 2.66176 130.941 2.93581 130.895L32.8839 125.882C33.3303 125.809 33.736 125.579 34.0285 125.234C34.3211 124.889 34.4815 124.451 34.481 123.999V38.5662C34.4811 38.2896 34.4212 38.0162 34.3053 37.765C34.1895 37.5138 34.0206 37.2907 33.8102 37.1112C33.5998 36.9316 33.3529 36.7998 33.0867 36.7248C32.8204 36.6499 32.541 36.6336 32.2679 36.6771L2.32265 41.4334C1.87339 41.5044 1.46421 41.7333 1.16874 42.0791C0.873278 42.4249 0.710937 42.8648 0.710939 43.3196Z" fill="#C1D5D9" stroke="#2E2E2E" stroke-width="0.891892" stroke-miterlimit="10"/>
<path d="M2.24223 43.01V128.682C2.24266 128.96 2.30352 129.234 2.42057 129.485C2.53762 129.737 2.70804 129.96 2.92003 130.139C3.13201 130.319 3.38046 130.45 3.64812 130.523C3.91578 130.597 4.19623 130.611 4.47001 130.565L34.4181 125.552C34.8645 125.479 35.2702 125.249 35.5627 124.904C35.8553 124.559 36.0157 124.121 36.0152 123.669V38.242C36.0152 37.9657 35.9553 37.6926 35.8397 37.4417C35.724 37.1907 35.5554 36.9678 35.3453 36.7882C35.1353 36.6087 34.8888 36.4768 34.6229 36.4017C34.357 36.3265 34.0779 36.3099 33.805 36.3529L3.85394 41.1092C3.40245 41.1811 2.99164 41.4124 2.69597 41.761C2.4003 42.1097 2.23933 42.5528 2.24223 43.01Z" fill="#2E2E2E" stroke="#2E2E2E" stroke-width="0.891892" stroke-miterlimit="10"/>
<path d="M3.17969 169.058L89.3013 155.079L144.616 163.949L58.4919 177.319L3.17969 169.058Z" fill="#2E2E2E" stroke="#2E2E2E" stroke-width="0.891892" stroke-linejoin="round"/>
<path d="M62.9727 169.879L99.4961 164.419V107.553L63.0194 127.361L62.9727 169.879Z" fill="#EAEEF2" stroke="#2E2E2E" stroke-width="0.891892" stroke-linejoin="round"/>
<path d="M96.7445 8.84765L90.0057 8.4126L49.5405 14.5208C47.9755 14.7568 46.5474 15.5474 45.5167 16.7485C44.486 17.9497 43.9214 19.4813 43.9258 21.064L44.0572 166.761L62.9715 169.876L63.0445 130.088L56.2064 108.774C55.6964 107.188 55.4459 105.529 55.4647 103.863L56.4662 19.5253C56.4817 18.1616 56.9843 16.8484 57.8834 15.823C58.7824 14.7976 60.0186 14.1275 61.3685 13.9339L96.7445 8.84765Z" fill="#EAEEF2" stroke="#2E2E2E" stroke-width="0.891892" stroke-linejoin="round"/>
<path d="M100.22 8.34229V10.8037L64.2309 16.1293C62.9329 16.3199 61.7467 16.9711 60.889 17.9639C60.0314 18.9566 59.5594 20.2248 59.5593 21.5367L61.3695 106.394L66.5405 128.762L63.0367 130.091L56.0731 108.412C55.6461 107.081 55.4371 105.689 55.4541 104.292L56.514 14.6548L100.22 8.34229Z" fill="#EAEEF2" stroke="#2E2E2E" stroke-width="0.891892" stroke-linejoin="round"/>
<path d="M100.948 11.9602C100.951 11.7031 100.868 11.4525 100.713 11.2471C100.559 11.0418 100.341 10.8932 100.093 10.8244C99.9308 10.7769 99.7603 10.766 99.5936 10.7923L60.9416 16.6143C60.5594 16.6723 60.2105 16.8652 59.9582 17.1582C59.7059 17.4512 59.5669 17.8248 59.5664 18.2114V102.678C59.566 104.998 59.9145 107.305 60.6 109.521L65.6716 125.931L66.5476 128.772L98.5337 123.496C98.8717 123.439 99.1976 123.326 99.4972 123.16C99.9801 122.898 100.383 122.51 100.663 122.038C100.944 121.565 101.09 121.026 101.088 120.476L100.948 11.9602ZM70.9798 101.962C70.9791 100.829 71.2572 99.7134 71.7896 98.7133C72.3219 97.7131 73.0922 96.8594 74.0325 96.2273C74.9728 95.5951 76.0542 95.2041 77.1813 95.0886C78.3084 94.9731 79.4466 95.1368 80.4955 95.5651C81.5444 95.9934 82.4718 96.6732 83.196 97.5447C83.9201 98.4161 84.4187 99.4523 84.6477 100.562C84.8768 101.671 84.8293 102.82 84.5094 103.907C84.1896 104.994 83.6072 105.986 82.8136 106.794L74.793 108.138C73.6467 107.564 72.6827 106.682 72.0092 105.591C71.3357 104.501 70.9793 103.244 70.9798 101.962ZM66.387 40.6733C67.8282 40.7064 69.1992 41.3022 70.2068 42.3332C71.2143 43.3642 71.7784 44.7486 71.7784 46.1902C71.7784 47.6317 71.2143 49.0161 70.2068 50.0471C69.1992 51.0781 67.8282 51.6739 66.387 51.7071C65.7152 51.7094 65.0489 51.5866 64.422 51.345V41.0295C65.0496 40.7913 65.7157 40.6705 66.387 40.6733Z" fill="#EAEEF2" stroke="#2E2E2E" stroke-width="0.891892" stroke-linejoin="round"/>
<path d="M98.192 17.1747V102.601C98.1921 103.053 98.032 103.491 97.7402 103.836C97.4483 104.182 97.0436 104.412 96.5978 104.488L82.8135 106.794C83.8327 105.753 84.4965 104.417 84.7099 102.976C84.9233 101.535 84.6754 100.063 84.0016 98.772C83.3278 97.4805 82.2627 96.4353 80.9587 95.786C79.6547 95.1367 78.1788 94.9166 76.7421 95.1572C75.3054 95.3978 73.9817 96.0867 72.9604 97.1254C71.9391 98.1641 71.2726 99.4992 71.0563 100.94C70.8399 102.38 71.0849 103.852 71.7561 105.145C72.4273 106.438 73.4903 107.485 74.7929 108.137L66.6467 109.501C66.3729 109.546 66.0926 109.531 65.825 109.457C65.5575 109.384 65.3093 109.252 65.0976 109.073C64.8859 108.893 64.7158 108.67 64.5991 108.418C64.4824 108.166 64.422 107.892 64.4219 107.615V51.3389C65.0487 51.5805 65.7151 51.7033 66.3869 51.701C67.1969 51.7022 67.9973 51.5251 68.7312 51.1822C69.4651 50.8394 70.1145 50.3391 70.6334 49.717C71.1522 49.0949 71.5277 48.3662 71.7332 47.5827C71.9387 46.7991 71.9692 45.98 71.8225 45.1833C71.6759 44.3866 71.3556 43.632 70.8845 42.9731C70.4133 42.3141 69.8029 41.767 69.0965 41.3705C68.3901 40.974 67.6051 40.7379 66.7972 40.6789C65.9893 40.6199 65.1784 40.7395 64.4219 41.0292V21.931C64.4218 21.4758 64.584 21.0355 64.8794 20.6893C65.1749 20.343 65.5841 20.1134 66.0336 20.0419L95.9817 15.2885C96.2545 15.245 96.5335 15.2612 96.7994 15.336C97.0653 15.4107 97.3119 15.5423 97.522 15.7217C97.7321 15.901 97.9008 16.1237 98.0165 16.3746C98.1322 16.6254 98.1921 16.8984 98.192 17.1747Z" fill="#C1D5D9" stroke="#2E2E2E" stroke-width="0.891892" stroke-miterlimit="10"/>
<path d="M52.2798 101.55L46.6358 100.695C46.4032 100.66 46.1909 100.542 46.0376 100.364C45.8843 100.185 45.8003 99.9576 45.8008 99.7224V88.6272C45.8009 88.4857 45.8315 88.3459 45.8906 88.2173C45.9496 88.0888 46.0357 87.9744 46.143 87.8821C46.2502 87.7899 46.3761 87.7218 46.5121 87.6826C46.648 87.6434 46.7908 87.6339 46.9307 87.6549L52.5717 88.5104C52.8039 88.5466 53.0155 88.6643 53.1686 88.8426C53.3216 89.0208 53.4061 89.2478 53.4068 89.4827V100.578C53.4071 100.719 53.3769 100.859 53.3181 100.988C53.2594 101.116 53.1736 101.231 53.0666 101.323C52.9595 101.415 52.8338 101.483 52.698 101.523C52.5622 101.562 52.4195 101.571 52.2798 101.55Z" fill="#EAEEF2" stroke="#2E2E2E" stroke-width="0.891892" stroke-linejoin="round"/>
<path d="M50.7066 119.133L48.6015 118.814C48.5146 118.802 48.4351 118.758 48.3777 118.692C48.3203 118.625 48.2889 118.54 48.2891 118.452V114.309C48.2889 114.256 48.3002 114.204 48.3221 114.156C48.3439 114.108 48.3759 114.065 48.4158 114.03C48.4557 113.996 48.5026 113.97 48.5532 113.955C48.6039 113.94 48.6572 113.937 48.7095 113.944L50.8176 114.265C50.9043 114.279 50.9834 114.322 51.0406 114.389C51.0979 114.455 51.1296 114.54 51.13 114.627V118.771C51.1298 118.823 51.1181 118.876 51.0959 118.924C51.0737 118.972 51.0414 119.014 51.0012 119.049C50.961 119.083 50.9139 119.108 50.8631 119.123C50.8123 119.137 50.7589 119.141 50.7066 119.133Z" fill="#2E2E2E" stroke="#2E2E2E" stroke-width="0.891892" stroke-miterlimit="10"/>
<path d="M43.8867 81.7544L55.5804 83.7369" stroke="#2E2E2E" stroke-width="0.891892" stroke-linejoin="round"/>
<path d="M64.4336 92.0609L97.6781 15.8899C97.6781 15.8899 96.9453 15.1074 95.9817 15.2884C95.0182 15.4694 89.7334 16.4038 89.7334 16.4038L64.4336 73.9846V92.0609Z" fill="#EAEEF2" stroke="#2E2E2E" stroke-width="0.891892" stroke-linejoin="round"/>
<path d="M134.988 45.7507C137.198 45.7507 138.988 43.9598 138.988 41.7506C138.988 39.5414 137.198 37.7505 134.988 37.7505C132.779 37.7505 130.988 39.5414 130.988 41.7506C130.988 43.9598 132.779 45.7507 134.988 45.7507Z" fill="#C1D5D9" stroke="#2E2E2E" stroke-width="0.891892" stroke-miterlimit="10"/>
<path d="M84.7871 101.962C84.7899 103.77 84.0808 105.506 82.8133 106.795L74.7927 108.138C73.693 107.588 72.7601 106.754 72.0904 105.722C71.4207 104.691 71.0386 103.5 70.9835 102.271C70.9284 101.043 71.2023 99.8221 71.777 98.735C72.3516 97.6478 73.2061 96.7339 74.2522 96.0875C75.2983 95.4412 76.4979 95.0859 77.7273 95.0584C78.9566 95.0309 80.171 95.3321 81.245 95.931C82.3189 96.5299 83.2135 97.4047 83.8362 98.465C84.4589 99.5253 84.7872 100.733 84.7871 101.962Z" fill="#2E2E2E" stroke="#2E2E2E" stroke-width="0.891892" stroke-miterlimit="10"/>
<path d="M71.9023 46.1833C71.9023 47.6463 71.3213 49.0495 70.2871 50.0843C69.2528 51.1191 67.8499 51.7009 66.3869 51.7017C65.7151 51.7039 65.0487 51.5812 64.4219 51.3396V41.0299C65.257 40.7115 66.157 40.6008 67.0443 40.7073C67.9317 40.8138 68.7799 41.1344 69.5159 41.6415C70.2519 42.1485 70.8537 42.8268 71.2694 43.618C71.6851 44.4092 71.9023 45.2895 71.9023 46.1833Z" fill="#2E2E2E" stroke="#2E2E2E" stroke-width="0.891892" stroke-miterlimit="10"/>
<path d="M74.5545 48.3961C77.6006 48.3961 80.07 45.9268 80.07 42.8807C80.07 39.8346 77.6006 37.3652 74.5545 37.3652C71.5084 37.3652 69.0391 39.8346 69.0391 42.8807C69.0391 45.9268 71.5084 48.3961 74.5545 48.3961Z" fill="#5CB5D4" stroke="#2E2E2E" stroke-width="0.891892" stroke-miterlimit="10"/>
<path d="M82.375 6.00954V70.3701C82.3751 70.5787 82.4207 70.7847 82.5085 70.9739C82.5963 71.1631 82.7242 71.331 82.8834 71.4657C83.0427 71.6005 83.2293 71.699 83.4304 71.7543C83.6315 71.8096 83.8423 71.8205 84.048 71.7862L106.53 68.0197C106.866 67.9643 107.171 67.7915 107.39 67.5321C107.61 67.2727 107.731 66.9436 107.73 66.6036V2.43866C107.73 2.23099 107.685 2.02577 107.598 1.83717C107.511 1.64856 107.385 1.48104 107.227 1.34616C107.069 1.21128 106.884 1.11225 106.684 1.05588C106.484 0.999512 106.274 0.987152 106.069 1.01965L83.5867 4.59345C83.2489 4.64578 82.9409 4.81737 82.7186 5.07713C82.4964 5.33689 82.3745 5.66766 82.375 6.00954Z" fill="#C1D5D9" stroke="#2E2E2E" stroke-width="0.891892" stroke-miterlimit="10"/>
<path d="M83.7227 5.83185V70.1924C83.7224 70.4009 83.7675 70.6069 83.855 70.7961C83.9424 70.9853 84.0701 71.1532 84.2291 71.288C84.3881 71.4228 84.5746 71.5213 84.7756 71.5767C84.9765 71.632 85.1872 71.6429 85.3928 71.6085L107.89 67.842C108.224 67.7854 108.528 67.6122 108.747 67.353C108.966 67.0938 109.087 66.7653 109.087 66.4259V2.25804C109.087 2.05075 109.042 1.84591 108.955 1.65766C108.868 1.4694 108.742 1.3022 108.584 1.16759C108.426 1.03298 108.241 0.93416 108.042 0.877942C107.842 0.821725 107.633 0.809449 107.428 0.841958L84.9314 4.41284C84.5939 4.46644 84.2866 4.63888 84.0649 4.89906C83.8433 5.15925 83.7219 5.49006 83.7227 5.83185Z" fill="#2E2E2E" stroke="#2E2E2E" stroke-width="0.891892" stroke-miterlimit="10"/>
<path d="M88.3555 12.5237L104.899 9.86084" stroke="#EAEEF2" stroke-width="0.891892" stroke-miterlimit="10"/>
<path d="M88.2969 18.7312L104.837 16.0654" stroke="#EAEEF2" stroke-width="0.891892" stroke-miterlimit="10"/>
<path d="M88.2344 24.9363L104.775 22.2705" stroke="#EAEEF2" stroke-width="0.891892" stroke-miterlimit="10"/>
<path d="M88.1719 31.1433L104.712 28.4775" stroke="#EAEEF2" stroke-width="0.891892" stroke-miterlimit="10"/>
<path d="M88.1133 37.3479L104.657 34.6821" stroke="#EAEEF2" stroke-width="0.891892" stroke-miterlimit="10"/>
<path d="M88.0547 43.553L104.595 40.8872" stroke="#EAEEF2" stroke-width="0.891892" stroke-miterlimit="10"/>
<path d="M105.5 39.4185V105.134C105.497 105.348 105.541 105.561 105.63 105.756C105.718 105.952 105.848 106.125 106.011 106.265C106.174 106.404 106.366 106.506 106.573 106.563C106.78 106.62 106.997 106.63 107.208 106.594L130.175 102.748C130.522 102.694 130.837 102.516 131.063 102.248C131.289 101.98 131.412 101.639 131.407 101.288V35.7717C131.41 35.5586 131.366 35.3476 131.279 35.1533C131.191 34.959 131.062 34.7862 130.901 34.6471C130.739 34.508 130.549 34.4059 130.344 34.348C130.139 34.29 129.924 34.2777 129.714 34.3118L106.744 37.9615C106.396 38.0136 106.078 38.1897 105.85 38.4574C105.621 38.7252 105.497 39.0665 105.5 39.4185Z" fill="#C1D5D9" stroke="#2E2E2E" stroke-width="0.891892" stroke-miterlimit="10"/>
<path d="M106.692 39.1206V104.836C106.688 105.05 106.733 105.263 106.821 105.459C106.909 105.654 107.04 105.828 107.203 105.967C107.366 106.106 107.558 106.208 107.765 106.265C107.971 106.322 108.188 106.332 108.4 106.296L131.369 102.45C131.712 102.394 132.023 102.218 132.247 101.953C132.471 101.688 132.594 101.352 132.593 101.005V35.4738C132.596 35.2605 132.552 35.0491 132.464 34.8546C132.376 34.6601 132.247 34.4871 132.085 34.348C131.924 34.2088 131.733 34.1068 131.528 34.049C131.323 33.9913 131.107 33.9794 130.896 34.0139L107.93 37.6637C107.582 37.717 107.266 37.8937 107.039 38.1613C106.811 38.4289 106.688 38.7695 106.692 39.1206Z" fill="#FFEB24" stroke="#2E2E2E" stroke-width="0.891892" stroke-miterlimit="10"/>
<path d="M109.289 41.4329V45.6666C109.289 45.7811 109.314 45.8943 109.363 45.9982C109.411 46.1022 109.481 46.1943 109.569 46.2682C109.656 46.3421 109.759 46.3961 109.869 46.4263C109.98 46.4565 110.096 46.4623 110.209 46.4432L113.695 46.0374C113.879 46.0057 114.046 45.9101 114.166 45.7675C114.286 45.6248 114.352 45.4443 114.352 45.2578V40.9015C114.352 40.7875 114.327 40.6749 114.28 40.5713C114.232 40.4678 114.163 40.3758 114.076 40.3017C113.99 40.2276 113.888 40.1731 113.778 40.1421C113.669 40.1111 113.554 40.1042 113.441 40.1219L109.955 40.6562C109.77 40.6854 109.601 40.7796 109.479 40.9219C109.357 41.0643 109.29 41.2454 109.289 41.4329Z" fill="#2E2E2E" stroke="#2E2E2E" stroke-width="0.891892" stroke-miterlimit="10"/>
<path d="M113.305 94.2899V98.5235C113.304 98.638 113.329 98.7512 113.377 98.8551C113.425 98.959 113.495 99.0512 113.582 99.1251C113.67 99.1991 113.772 99.2531 113.883 99.2834C113.993 99.3136 114.109 99.3194 114.222 99.3002L126.578 97.233C126.762 97.202 126.928 97.107 127.048 96.9648C127.169 96.8227 127.235 96.6425 127.235 96.4563V92.3278C127.235 92.2139 127.211 92.1013 127.163 91.9979C127.115 91.8945 127.046 91.8026 126.959 91.7288C126.872 91.6549 126.771 91.6007 126.661 91.57C126.551 91.5394 126.436 91.5329 126.324 91.5511L113.973 93.522C113.789 93.5503 113.621 93.6429 113.498 93.7835C113.376 93.9241 113.307 94.1035 113.305 94.2899Z" fill="#2E2E2E" stroke="#2E2E2E" stroke-width="0.891892" stroke-miterlimit="10"/>
<path d="M113.305 83.7904V88.0241C113.304 88.1385 113.329 88.2517 113.377 88.3556C113.425 88.4595 113.495 88.5517 113.582 88.6257C113.67 88.6997 113.772 88.7537 113.883 88.7839C113.993 88.8141 114.109 88.8199 114.222 88.8007L126.578 86.7335C126.762 86.7019 126.929 86.6063 127.049 86.4637C127.169 86.321 127.235 86.1405 127.235 85.954V81.8429C127.235 81.729 127.211 81.6165 127.163 81.513C127.115 81.4096 127.046 81.3178 126.959 81.2439C126.872 81.17 126.771 81.1159 126.661 81.0852C126.551 81.0545 126.436 81.048 126.324 81.0663L113.973 83.0108C113.787 83.0389 113.617 83.1331 113.494 83.2762C113.371 83.4193 113.304 83.6018 113.305 83.7904Z" fill="#2E2E2E" stroke="#2E2E2E" stroke-width="0.891892" stroke-miterlimit="10"/>
<path d="M116.871 10.4677C118.582 10.4677 119.969 9.08076 119.969 7.36985C119.969 5.65894 118.582 4.27197 116.871 4.27197C115.16 4.27197 113.773 5.65894 113.773 7.36985C113.773 9.08076 115.16 10.4677 116.871 10.4677Z" fill="#5CB5D4" stroke="#2E2E2E" stroke-width="0.891892" stroke-miterlimit="10"/>
<path d="M96.4787 92.1454C100.575 92.1454 103.895 88.8251 103.895 84.7292C103.895 80.6334 100.575 77.313 96.4787 77.313C92.3829 77.313 89.0625 80.6334 89.0625 84.7292C89.0625 88.8251 92.3829 92.1454 96.4787 92.1454Z" fill="#2E2E2E" stroke="#2E2E2E" stroke-width="0.891892" stroke-miterlimit="10"/>
<path d="M104.496 86.3116C107.542 86.3116 110.011 83.8423 110.011 80.7962C110.011 77.7501 107.542 75.2808 104.496 75.2808C101.45 75.2808 98.9805 77.7501 98.9805 80.7962C98.9805 83.8423 101.45 86.3116 104.496 86.3116Z" fill="#C1D5D9" stroke="#2E2E2E" stroke-width="0.891892" stroke-miterlimit="10"/>
<path d="M120.441 26.6168C123.487 26.6168 125.957 24.1475 125.957 21.1014C125.957 18.0553 123.487 15.5859 120.441 15.5859C117.395 15.5859 114.926 18.0553 114.926 21.1014C114.926 24.1475 117.395 26.6168 120.441 26.6168Z" fill="#2E2E2E" stroke="#2E2E2E" stroke-width="0.891892" stroke-miterlimit="10"/>
<path d="M82.3881 80.2239C85.9808 80.2239 88.8933 77.3114 88.8933 73.7186C88.8933 70.1259 85.9808 67.2134 82.3881 67.2134C78.7953 67.2134 75.8828 70.1259 75.8828 73.7186C75.8828 77.3114 78.7953 80.2239 82.3881 80.2239Z" fill="#5CB5D4" stroke="#2E2E2E" stroke-width="0.891892" stroke-miterlimit="10"/>
</svg>
