<svg width="82" height="72" viewBox="0 0 82 72" fill="none" xmlns="http://www.w3.org/2000/svg">
<circle cx="36" cy="36" r="36" fill="#FFF9C4"/>
<path d="M33.31 35.2419V23.2292C35.8525 22.8354 37.81 20.6529 37.81 18.0024C37.81 15.0752 35.4273 12.6924 32.5 12.6924C29.5728 12.6924 27.19 15.0729 27.19 18.0002C27.19 20.6507 29.1475 22.8354 31.69 23.2269V35.2082C31.348 35.2037 31.015 35.1879 30.6685 35.1879H19.81V20.9769C22.3525 20.5832 24.31 18.4007 24.31 15.7502C24.31 12.8229 21.9273 10.4402 19 10.4402C16.0728 10.4402 13.69 12.8229 13.69 15.7502C13.69 18.4007 15.6475 20.5854 18.19 20.9769V35.1902H12.25V36.8102H18.9955C18.9978 36.8102 19 36.8102 19 36.8102H19.0045H30.6685C46.7425 36.8102 58.2265 41.5869 67.897 52.2924L69.1008 51.2079C59.635 40.7297 48.511 35.7504 33.31 35.2419ZM15.31 15.7502C15.31 13.7162 16.966 12.0602 19 12.0602C21.034 12.0602 22.69 13.7162 22.69 15.7502C22.69 17.7842 21.034 19.4402 19 19.4402C16.966 19.4402 15.31 17.7842 15.31 15.7502ZM28.81 18.0002C28.81 15.9662 30.466 14.3102 32.5 14.3102C34.534 14.3102 36.19 15.9662 36.19 18.0002C36.19 20.0342 34.534 21.6902 32.5 21.6902C30.466 21.6902 28.81 20.0342 28.81 18.0002ZM69.103 69.2079L67.8993 70.2924C58.2265 59.5847 46.7448 54.8102 30.6708 54.8102H12.25V53.1902H30.6685C47.2398 53.1902 59.0928 58.1312 69.103 69.2079ZM69.103 60.2079L67.8993 61.2924C58.2265 50.5847 46.7448 45.8102 30.6708 45.8102H12.25V44.1902H30.6685C47.2398 44.1902 59.0928 49.1312 69.103 60.2079ZM64 25.5602C59.8308 25.5602 56.44 22.1694 56.44 18.0002C56.44 13.8309 59.8308 10.4402 64 10.4402C68.1693 10.4402 71.56 13.8309 71.56 18.0002C71.56 22.1694 68.1693 25.5602 64 25.5602ZM64 12.0602C60.724 12.0602 58.06 14.7264 58.06 18.0002C58.06 21.2739 60.724 23.9402 64 23.9402C67.276 23.9402 69.94 21.2762 69.94 18.0002C69.94 14.7242 67.276 12.0602 64 12.0602ZM64 7.56019C63.5523 7.56019 63.19 7.19794 63.19 6.75019V2.25019C63.19 1.80244 63.5523 1.44019 64 1.44019C64.4478 1.44019 64.81 1.80244 64.81 2.25019V6.75019C64.81 7.19794 64.4478 7.56019 64 7.56019ZM56.0463 10.8542C55.8393 10.8542 55.63 10.7754 55.4725 10.6179L52.2888 7.43644C51.9715 7.11919 51.9715 6.60619 52.2888 6.29119C52.606 5.97619 53.119 5.97619 53.4363 6.29119L56.62 9.47269C56.9373 9.78994 56.9373 10.3029 56.62 10.6179C56.4603 10.7754 56.2533 10.8542 56.0463 10.8542ZM52.75 18.8102H48.25C47.8023 18.8102 47.44 18.4479 47.44 18.0002C47.44 17.5524 47.8023 17.1902 48.25 17.1902H52.75C53.1978 17.1902 53.56 17.5524 53.56 18.0002C53.56 18.4479 53.1978 18.8102 52.75 18.8102ZM52.8625 29.9477C52.6555 29.9477 52.4463 29.8689 52.2888 29.7114C51.9715 29.3942 51.9715 28.8812 52.2888 28.5662L55.4725 25.3847C55.7898 25.0697 56.3028 25.0697 56.62 25.3847C56.9373 25.6997 56.9373 26.2149 56.62 26.5299L53.4363 29.7114C53.2765 29.8667 53.0695 29.9477 52.8625 29.9477ZM64 34.5602C63.5523 34.5602 63.19 34.1979 63.19 33.7502V29.2502C63.19 28.8024 63.5523 28.4402 64 28.4402C64.4478 28.4402 64.81 28.8024 64.81 29.2502V33.7502C64.81 34.1979 64.4478 34.5602 64 34.5602ZM75.1375 29.9477C74.9305 29.9477 74.7213 29.8689 74.5638 29.7114L71.38 26.5299C71.0628 26.2127 71.0628 25.6997 71.38 25.3847C71.6973 25.0697 72.2103 25.0697 72.5275 25.3847L75.7113 28.5662C76.0285 28.8834 76.0285 29.3964 75.7113 29.7114C75.5538 29.8667 75.3445 29.9477 75.1375 29.9477ZM79.75 18.8102H75.25C74.8023 18.8102 74.44 18.4479 74.44 18.0002C74.44 17.5524 74.8023 17.1902 75.25 17.1902H79.75C80.1978 17.1902 80.56 17.5524 80.56 18.0002C80.56 18.4479 80.1978 18.8102 79.75 18.8102ZM71.9538 10.8542C71.7468 10.8542 71.5375 10.7754 71.38 10.6179C71.0628 10.3007 71.0628 9.78769 71.38 9.47269L74.5638 6.29119C74.881 5.97619 75.394 5.97619 75.7113 6.29119C76.0285 6.60619 76.0285 7.12144 75.7113 7.43644L72.5275 10.6179C72.37 10.7754 72.1608 10.8542 71.9538 10.8542Z" fill="black"/>
</svg>
