<svg width="82" height="74" viewBox="0 0 82 74" fill="none" xmlns="http://www.w3.org/2000/svg">
<circle cx="36" cy="37" r="36" fill="#E1F5FE"/>
<path d="M26 1V0.25C25.5858 0.25 25.25 0.585786 25.25 1L26 1ZM26 73H25.25V73.75H26V73ZM53.8873 73V73.75H54.6373V73H53.8873ZM56.9296 2.26761L57.6796 2.27215C57.6815 1.95353 57.4819 1.66847 57.1818 1.5613L56.9296 2.26761ZM53.3803 1L53.6325 0.293694L53.5102 0.25H53.3803V1ZM26 73.75H53.8873V72.25H26V73.75ZM54.6373 73C54.6373 72.9914 54.6373 72.9828 54.6373 72.9742C54.6373 72.9656 54.6373 72.9569 54.6373 72.9483C54.6373 72.9396 54.6373 72.9309 54.6373 72.9222C54.6373 72.9135 54.6373 72.9048 54.6373 72.8961C54.6373 72.8873 54.6373 72.8786 54.6373 72.8698C54.6373 72.861 54.6373 72.8522 54.6373 72.8434C54.6373 72.8346 54.6373 72.8258 54.6373 72.8169C54.6373 72.8081 54.6373 72.7992 54.6373 72.7903C54.6373 72.7814 54.6373 72.7725 54.6373 72.7636C54.6373 72.7546 54.6373 72.7457 54.6373 72.7367C54.6373 72.7277 54.6373 72.7188 54.6373 72.7097C54.6373 72.7007 54.6373 72.6917 54.6373 72.6827C54.6373 72.6736 54.6373 72.6646 54.6373 72.6555C54.6373 72.6464 54.6373 72.6373 54.6373 72.6282C54.6373 72.6191 54.6373 72.61 54.6373 72.6008C54.6373 72.5916 54.6373 72.5825 54.6373 72.5733C54.6373 72.5641 54.6373 72.5549 54.6373 72.5457C54.6373 72.5364 54.6373 72.5272 54.6373 72.5179C54.6373 72.5087 54.6373 72.4994 54.6373 72.4901C54.6373 72.4808 54.6373 72.4715 54.6373 72.4621C54.6373 72.4528 54.6373 72.4434 54.6373 72.4341C54.6373 72.4247 54.6373 72.4153 54.6373 72.4059C54.6373 72.3965 54.6373 72.3871 54.6373 72.3776C54.6373 72.3682 54.6373 72.3587 54.6373 72.3493C54.6373 72.3398 54.6373 72.3303 54.6373 72.3208C54.6373 72.3113 54.6373 72.3017 54.6373 72.2922C54.6373 72.2826 54.6373 72.2731 54.6373 72.2635C54.6373 72.2539 54.6373 72.2443 54.6373 72.2347C54.6373 72.2251 54.6373 72.2155 54.6373 72.2058C54.6373 72.1962 54.6373 72.1865 54.6373 72.1768C54.6373 72.1671 54.6373 72.1574 54.6373 72.1477C54.6373 72.138 54.6373 72.1282 54.6373 72.1185C54.6373 72.1087 54.6373 72.099 54.6373 72.0892C54.6373 72.0794 54.6373 72.0696 54.6373 72.0598C54.6373 72.05 54.6373 72.0401 54.6373 72.0303C54.6373 72.0204 54.6373 72.0106 54.6373 72.0007C54.6373 71.9908 54.6373 71.9809 54.6373 71.971C54.6373 71.961 54.6373 71.9511 54.6373 71.9412C54.6373 71.9312 54.6373 71.9212 54.6373 71.9112C54.6373 71.9013 54.6373 71.8913 54.6373 71.8812C54.6373 71.8712 54.6373 71.8612 54.6373 71.8511C54.6373 71.8411 54.6373 71.831 54.6373 71.8209C54.6373 71.8109 54.6373 71.8008 54.6373 71.7907C54.6373 71.7805 54.6373 71.7704 54.6373 71.7603C54.6373 71.7501 54.6373 71.74 54.6373 71.7298C54.6373 71.7196 54.6373 71.7094 54.6373 71.6992C54.6373 71.689 54.6373 71.6788 54.6373 71.6685C54.6373 71.6583 54.6373 71.648 54.6373 71.6378C54.6373 71.6275 54.6373 71.6172 54.6373 71.6069C54.6373 71.5966 54.6373 71.5863 54.6373 71.576C54.6373 71.5656 54.6373 71.5553 54.6373 71.5449C54.6373 71.5346 54.6373 71.5242 54.6373 71.5138C54.6373 71.5034 54.6373 71.493 54.6373 71.4826C54.6373 71.4721 54.6373 71.4617 54.6373 71.4513C54.6373 71.4408 54.6373 71.4303 54.6373 71.4199C54.6373 71.4094 54.6373 71.3989 54.6373 71.3884C54.6373 71.3778 54.6373 71.3673 54.6373 71.3568C54.6373 71.3462 54.6373 71.3357 54.6373 71.3251C54.6373 71.3145 54.6373 71.3039 54.6373 71.2933C54.6373 71.2827 54.6373 71.2721 54.6373 71.2615C54.6373 71.2509 54.6373 71.2402 54.6373 71.2296C54.6373 71.2189 54.6373 71.2082 54.6373 71.1975C54.6373 71.1869 54.6373 71.1762 54.6373 71.1654C54.6373 71.1547 54.6373 71.144 54.6373 71.1333C54.6373 71.1225 54.6373 71.1118 54.6373 71.101C54.6373 71.0902 54.6373 71.0794 54.6373 71.0686C54.6373 71.0578 54.6373 71.047 54.6373 71.0362C54.6373 71.0254 54.6373 71.0145 54.6373 71.0037C54.6373 70.9928 54.6373 70.9819 54.6373 70.971C54.6373 70.9602 54.6373 70.9493 54.6373 70.9384C54.6373 70.9275 54.6373 70.9165 54.6373 70.9056C54.6373 70.8947 54.6373 70.8837 54.6373 70.8727C54.6373 70.8618 54.6373 70.8508 54.6373 70.8398C54.6373 70.8288 54.6373 70.8178 54.6373 70.8068C54.6373 70.7958 54.6373 70.7847 54.6373 70.7737C54.6373 70.7627 54.6373 70.7516 54.6373 70.7405C54.6373 70.7295 54.6373 70.7184 54.6373 70.7073C54.6373 70.6962 54.6373 70.6851 54.6373 70.674C54.6373 70.6628 54.6373 70.6517 54.6373 70.6406C54.6373 70.6294 54.6373 70.6182 54.6373 70.6071C54.6373 70.5959 54.6373 70.5847 54.6373 70.5735C54.6373 70.5623 54.6373 70.5511 54.6373 70.5399C54.6373 70.5287 54.6373 70.5174 54.6373 70.5062C54.6373 70.4949 54.6373 70.4837 54.6373 70.4724C54.6373 70.4611 54.6373 70.4498 54.6373 70.4385C54.6373 70.4272 54.6373 70.4159 54.6373 70.4046C54.6373 70.3933 54.6373 70.3819 54.6373 70.3706C54.6373 70.3593 54.6373 70.3479 54.6373 70.3365C54.6373 70.3252 54.6373 70.3138 54.6373 70.3024C54.6373 70.291 54.6373 70.2796 54.6373 70.2682C54.6373 70.2567 54.6373 70.2453 54.6373 70.2339C54.6373 70.2224 54.6373 70.211 54.6373 70.1995C54.6373 70.188 54.6373 70.1766 54.6373 70.1651C54.6373 70.1536 54.6373 70.1421 54.6373 70.1306C54.6373 70.1191 54.6373 70.1075 54.6373 70.096C54.6373 70.0845 54.6373 70.0729 54.6373 70.0614C54.6373 70.0498 54.6373 70.0382 54.6373 70.0267C54.6373 70.0151 54.6373 70.0035 54.6373 69.9919C54.6373 69.9803 54.6373 69.9687 54.6373 69.957C54.6373 69.9454 54.6373 69.9338 54.6373 69.9221C54.6373 69.9105 54.6373 69.8988 54.6373 69.8872C54.6373 69.8755 54.6373 69.8638 54.6373 69.8521C54.6373 69.8404 54.6373 69.8287 54.6373 69.817C54.6373 69.8053 54.6373 69.7936 54.6373 69.7819C54.6373 69.7701 54.6373 69.7584 54.6373 69.7466C54.6373 69.7349 54.6373 69.7231 54.6373 69.7113C54.6373 69.6995 54.6373 69.6878 54.6373 69.676C54.6373 69.6642 54.6373 69.6524 54.6373 69.6405C54.6373 69.6287 54.6373 69.6169 54.6373 69.6051C54.6373 69.5932 54.6373 69.5814 54.6373 69.5695C54.6373 69.5577 54.6373 69.5458 54.6373 69.5339C54.6373 69.522 54.6373 69.5102 54.6373 69.4983C54.6373 69.4864 54.6373 69.4745 54.6373 69.4625C54.6373 69.4506 54.6373 69.4387 54.6373 69.4268C54.6373 69.4148 54.6373 69.4029 54.6373 69.3909C54.6373 69.379 54.6373 69.367 54.6373 69.355C54.6373 69.343 54.6373 69.3311 54.6373 69.3191C54.6373 69.3071 54.6373 69.2951 54.6373 69.283C54.6373 69.271 54.6373 69.259 54.6373 69.247C54.6373 69.2349 54.6373 69.2229 54.6373 69.2109C54.6373 69.1988 54.6373 69.1867 54.6373 69.1747C54.6373 69.1626 54.6373 69.1505 54.6373 69.1384C54.6373 69.1263 54.6373 69.1143 54.6373 69.1021C54.6373 69.09 54.6373 69.0779 54.6373 69.0658C54.6373 69.0537 54.6373 69.0415 54.6373 69.0294C54.6373 69.0173 54.6373 69.0051 54.6373 68.993C54.6373 68.9808 54.6373 68.9686 54.6373 68.9565C54.6373 68.9443 54.6373 68.9321 54.6373 68.9199C54.6373 68.9077 54.6373 68.8955 54.6373 68.8833C54.6373 68.8711 54.6373 68.8589 54.6373 68.8466C54.6373 68.8344 54.6373 68.8222 54.6373 68.8099C54.6373 68.7977 54.6373 68.7854 54.6373 68.7732C54.6373 68.7609 54.6373 68.7486 54.6373 68.7364C54.6373 68.7241 54.6373 68.7118 54.6373 68.6995C54.6373 68.6872 54.6373 68.6749 54.6373 68.6626C54.6373 68.6503 54.6373 68.638 54.6373 68.6257C54.6373 68.6133 54.6373 68.601 54.6373 68.5887C54.6373 68.5763 54.6373 68.564 54.6373 68.5516C54.6373 68.5393 54.6373 68.5269 54.6373 68.5145C54.6373 68.5022 54.6373 68.4898 54.6373 68.4774C54.6373 68.465 54.6373 68.4526 54.6373 68.4402C54.6373 68.4278 54.6373 68.4154 54.6373 68.403C54.6373 68.3906 54.6373 68.3782 54.6373 68.3657C54.6373 68.3533 54.6373 68.3409 54.6373 68.3284C54.6373 68.316 54.6373 68.3035 54.6373 68.2911C54.6373 68.2786 54.6373 68.2661 54.6373 68.2537C54.6373 68.2412 54.6373 68.2287 54.6373 68.2162C54.6373 68.2037 54.6373 68.1912 54.6373 68.1787C54.6373 68.1662 54.6373 68.1537 54.6373 68.1412C54.6373 68.1287 54.6373 68.1162 54.6373 68.1037C54.6373 68.0911 54.6373 68.0786 54.6373 68.0661C54.6373 68.0535 54.6373 68.041 54.6373 68.0284C54.6373 68.0159 54.6373 68.0033 54.6373 67.9907C54.6373 67.9782 54.6373 67.9656 54.6373 67.953C54.6373 67.9404 54.6373 67.9279 54.6373 67.9153C54.6373 67.9027 54.6373 67.8901 54.6373 67.8775C54.6373 67.8649 54.6373 67.8523 54.6373 67.8396C54.6373 67.827 54.6373 67.8144 54.6373 67.8018C54.6373 67.7892 54.6373 67.7765 54.6373 67.7639C54.6373 67.7512 54.6373 67.7386 54.6373 67.7259C54.6373 67.7133 54.6373 67.7006 54.6373 67.688C54.6373 67.6753 54.6373 67.6626 54.6373 67.65C54.6373 67.6373 54.6373 67.6246 54.6373 67.6119C54.6373 67.5992 54.6373 67.5866 54.6373 67.5739C54.6373 67.5612 54.6373 67.5485 54.6373 67.5358C54.6373 67.5231 54.6373 67.5103 54.6373 67.4976C54.6373 67.4849 54.6373 67.4722 54.6373 67.4595C54.6373 67.4467 54.6373 67.434 54.6373 67.4213C54.6373 67.4085 54.6373 67.3958 54.6373 67.383C54.6373 67.3703 54.6373 67.3575 54.6373 67.3448C54.6373 67.332 54.6373 67.3193 54.6373 67.3065C54.6373 67.2937 54.6373 67.2809 54.6373 67.2682C54.6373 67.2554 54.6373 67.2426 54.6373 67.2298C54.6373 67.217 54.6373 67.2042 54.6373 67.1915C54.6373 67.1787 54.6373 67.1659 54.6373 67.1531C54.6373 67.1402 54.6373 67.1274 54.6373 67.1146C54.6373 67.1018 54.6373 67.089 54.6373 67.0762C54.6373 67.0634 54.6373 67.0505 54.6373 67.0377C54.6373 67.0249 54.6373 67.012 54.6373 66.9992C54.6373 66.9864 54.6373 66.9735 54.6373 66.9607C54.6373 66.9478 54.6373 66.935 54.6373 66.9221C54.6373 66.9093 54.6373 66.8964 54.6373 66.8835C54.6373 66.8707 54.6373 66.8578 54.6373 66.8449C54.6373 66.8321 54.6373 66.8192 54.6373 66.8063C54.6373 66.7934 54.6373 66.7806 54.6373 66.7677C54.6373 66.7548 54.6373 66.7419 54.6373 66.729C54.6373 66.7161 54.6373 66.7032 54.6373 66.6903C54.6373 66.6774 54.6373 66.6645 54.6373 66.6516C54.6373 66.6387 54.6373 66.6258 54.6373 66.6129C54.6373 66.6 54.6373 66.5871 54.6373 66.5741C54.6373 66.5612 54.6373 66.5483 54.6373 66.5354C54.6373 66.5225 54.6373 66.5095 54.6373 66.4966C54.6373 66.4837 54.6373 66.4707 54.6373 66.4578C54.6373 66.4449 54.6373 66.4319 54.6373 66.419C54.6373 66.406 54.6373 66.3931 54.6373 66.3801C54.6373 66.3672 54.6373 66.3542 54.6373 66.3413C54.6373 66.3283 54.6373 66.3154 54.6373 66.3024C54.6373 66.2895 54.6373 66.2765 54.6373 66.2635C54.6373 66.2506 54.6373 66.2376 54.6373 66.2246C54.6373 66.2117 54.6373 66.1987 54.6373 66.1857C54.6373 66.1728 54.6373 66.1598 54.6373 66.1468C54.6373 66.1338 54.6373 66.1208 54.6373 66.1079C54.6373 66.0949 54.6373 66.0819 54.6373 66.0689C54.6373 66.0559 54.6373 66.0429 54.6373 66.0299C54.6373 66.017 54.6373 66.004 54.6373 65.991C54.6373 65.978 54.6373 65.965 54.6373 65.952C54.6373 65.939 54.6373 65.926 54.6373 65.913C54.6373 65.9 54.6373 65.887 54.6373 65.874C54.6373 65.861 54.6373 65.848 54.6373 65.835C54.6373 65.822 54.6373 65.8089 54.6373 65.7959C54.6373 65.7829 54.6373 65.7699 54.6373 65.7569C54.6373 65.7439 54.6373 65.7309 54.6373 65.7179C54.6373 65.7048 54.6373 65.6918 54.6373 65.6788C54.6373 65.6658 54.6373 65.6528 54.6373 65.6398C54.6373 65.6267 54.6373 65.6137 54.6373 65.6007C54.6373 65.5877 54.6373 65.5746 54.6373 65.5616C54.6373 65.5486 54.6373 65.5356 54.6373 65.5225C54.6373 65.5095 54.6373 65.4965 54.6373 65.4835C54.6373 65.4704 54.6373 65.4574 54.6373 65.4444C54.6373 65.4314 54.6373 65.4183 54.6373 65.4053C54.6373 65.3923 54.6373 65.3792 54.6373 65.3662C54.6373 65.3532 54.6373 65.3401 54.6373 65.3271C54.6373 65.3141 54.6373 65.301 54.6373 65.288C54.6373 65.275 54.6373 65.2619 54.6373 65.2489C54.6373 65.2359 54.6373 65.2229 54.6373 65.2098C54.6373 65.1968 54.6373 65.1838 54.6373 65.1707C54.6373 65.1577 54.6373 65.1447 54.6373 65.1316C54.6373 65.1186 54.6373 65.1056 54.6373 65.0925C54.6373 65.0795 54.6373 65.0665 54.6373 65.0534C54.6373 65.0404 54.6373 65.0274 54.6373 65.0143C54.6373 65.0013 54.6373 64.9883 54.6373 64.9752C54.6373 64.9622 54.6373 64.9492 54.6373 64.9361C54.6373 64.9231 54.6373 64.9101 54.6373 64.897C54.6373 64.884 54.6373 64.871 54.6373 64.858C54.6373 64.8449 54.6373 64.8319 54.6373 64.8189C54.6373 64.8059 54.6373 64.7928 54.6373 64.7798C54.6373 64.7668 54.6373 64.7538 54.6373 64.7407C54.6373 64.7277 54.6373 64.7147 54.6373 64.7017C54.6373 64.6886 54.6373 64.6756 54.6373 64.6626C54.6373 64.6496 54.6373 64.6366 54.6373 64.6235C54.6373 64.6105 54.6373 64.5975 54.6373 64.5845C54.6373 64.5715 54.6373 64.5585 54.6373 64.5455C54.6373 64.5324 54.6373 64.5194 54.6373 64.5064C54.6373 64.4934 54.6373 64.4804 54.6373 64.4674C54.6373 64.4544 54.6373 64.4414 54.6373 64.4284C54.6373 64.4154 54.6373 64.4024 54.6373 64.3894C54.6373 64.3764 54.6373 64.3634 54.6373 64.3504C54.6373 64.3374 54.6373 64.3244 54.6373 64.3114C54.6373 64.2984 54.6373 64.2854 54.6373 64.2724C54.6373 64.2595 54.6373 64.2465 54.6373 64.2335C54.6373 64.2205 54.6373 64.2075 54.6373 64.1945C54.6373 64.1816 54.6373 64.1686 54.6373 64.1556C54.6373 64.1426 54.6373 64.1297 54.6373 64.1167C54.6373 64.1037 54.6373 64.0907 54.6373 64.0778C54.6373 64.0648 54.6373 64.0518 54.6373 64.0389C54.6373 64.0259 54.6373 64.013 54.6373 64C54.6373 63.987 54.6373 63.9741 54.6373 63.9611C54.6373 63.9482 54.6373 63.9352 54.6373 63.9223C54.6373 63.9093 54.6373 63.8964 54.6373 63.8835C54.6373 63.8705 54.6373 63.8576 54.6373 63.8447C54.6373 63.8317 54.6373 63.8188 54.6373 63.8059C54.6373 63.7929 54.6373 63.78 54.6373 63.7671C54.6373 63.7542 54.6373 63.7412 54.6373 63.7283C54.6373 63.7154 54.6373 63.7025 54.6373 63.6896C54.6373 63.6767 54.6373 63.6638 54.6373 63.6509C54.6373 63.638 54.6373 63.6251 54.6373 63.6122C54.6373 63.5993 54.6373 63.5864 54.6373 63.5735C54.6373 63.5606 54.6373 63.5477 54.6373 63.5348C54.6373 63.5219 54.6373 63.5091 54.6373 63.4962C54.6373 63.4833 54.6373 63.4704 54.6373 63.4576C54.6373 63.4447 54.6373 63.4318 54.6373 63.419C54.6373 63.4061 54.6373 63.3933 54.6373 63.3804C54.6373 63.3676 54.6373 63.3547 54.6373 63.3419C54.6373 63.329 54.6373 63.3162 54.6373 63.3034C54.6373 63.2905 54.6373 63.2777 54.6373 63.2649C54.6373 63.252 54.6373 63.2392 54.6373 63.2264C54.6373 63.2136 54.6373 63.2008 54.6373 63.188C54.6373 63.1751 54.6373 63.1623 54.6373 63.1495C54.6373 63.1367 54.6373 63.1239 54.6373 63.1111C54.6373 63.0984 54.6373 63.0856 54.6373 63.0728C54.6373 63.06 54.6373 63.0472 54.6373 63.0344C54.6373 63.0217 54.6373 63.0089 54.6373 62.9961C54.6373 62.9834 54.6373 62.9706 54.6373 62.9579C54.6373 62.9451 54.6373 62.9324 54.6373 62.9196C54.6373 62.9069 54.6373 62.8941 54.6373 62.8814C54.6373 62.8687 54.6373 62.8559 54.6373 62.8432C54.6373 62.8305 54.6373 62.8178 54.6373 62.8051C54.6373 62.7923 54.6373 62.7796 54.6373 62.7669C54.6373 62.7542 54.6373 62.7415 54.6373 62.7288C54.6373 62.7162 54.6373 62.7035 54.6373 62.6908C54.6373 62.6781 54.6373 62.6654 54.6373 62.6528C54.6373 62.6401 54.6373 62.6274 54.6373 62.6148C54.6373 62.6021 54.6373 62.5895 54.6373 62.5768C54.6373 62.5642 54.6373 62.5515 54.6373 62.5389C54.6373 62.5263 54.6373 62.5136 54.6373 62.501C54.6373 62.4884 54.6373 62.4758 54.6373 62.4631C54.6373 62.4505 54.6373 62.4379 54.6373 62.4253C54.6373 62.4127 54.6373 62.4001 54.6373 62.3876C54.6373 62.375 54.6373 62.3624 54.6373 62.3498C54.6373 62.3372 54.6373 62.3247 54.6373 62.3121C54.6373 62.2995 54.6373 62.287 54.6373 62.2744C54.6373 62.2619 54.6373 62.2494 54.6373 62.2368C54.6373 62.2243 54.6373 62.2118 54.6373 62.1992C54.6373 62.1867 54.6373 62.1742 54.6373 62.1617C54.6373 62.1492 54.6373 62.1367 54.6373 62.1242C54.6373 62.1117 54.6373 62.0992 54.6373 62.0867C54.6373 62.0742 54.6373 62.0618 54.6373 62.0493C54.6373 62.0368 54.6373 62.0244 54.6373 62.0119C54.6373 61.9995 54.6373 61.987 54.6373 61.9746C54.6373 61.9621 54.6373 61.9497 54.6373 61.9373C54.6373 61.9248 54.6373 61.9124 54.6373 61.9C54.6373 61.8876 54.6373 61.8752 54.6373 61.8628C54.6373 61.8504 54.6373 61.838 54.6373 61.8256C54.6373 61.8133 54.6373 61.8009 54.6373 61.7885C54.6373 61.7762 54.6373 61.7638 54.6373 61.7515C54.6373 61.7391 54.6373 61.7268 54.6373 61.7144C54.6373 61.7021 54.6373 61.6898 54.6373 61.6774C54.6373 61.6651 54.6373 61.6528 54.6373 61.6405C54.6373 61.6282 54.6373 61.6159 54.6373 61.6036C54.6373 61.5913 54.6373 61.5791 54.6373 61.5668C54.6373 61.5545 54.6373 61.5423 54.6373 61.53C54.6373 61.5178 54.6373 61.5055 54.6373 61.4933C54.6373 61.481 54.6373 61.4688 54.6373 61.4566C54.6373 61.4444 54.6373 61.4321 54.6373 61.4199C54.6373 61.4077 54.6373 61.3955 54.6373 61.3834C54.6373 61.3712 54.6373 61.359 54.6373 61.3468C54.6373 61.3347 54.6373 61.3225 54.6373 61.3103C54.6373 61.2982 54.6373 61.286 54.6373 61.2739C54.6373 61.2618 54.6373 61.2496 54.6373 61.2375C54.6373 61.2254 54.6373 61.2133 54.6373 61.2012C54.6373 61.1891 54.6373 61.177 54.6373 61.1649C54.6373 61.1529 54.6373 61.1408 54.6373 61.1287C54.6373 61.1167 54.6373 61.1046 54.6373 61.0926C54.6373 61.0805 54.6373 61.0685 54.6373 61.0565C54.6373 61.0444 54.6373 61.0324 54.6373 61.0204C54.6373 61.0084 54.6373 60.9964 54.6373 60.9844C54.6373 60.9724 54.6373 60.9604 54.6373 60.9485C54.6373 60.9365 54.6373 60.9245 54.6373 60.9126C54.6373 60.9007 54.6373 60.8887 54.6373 60.8768C54.6373 60.8649 54.6373 60.8529 54.6373 60.841C54.6373 60.8291 54.6373 60.8172 54.6373 60.8053C54.6373 60.7934 54.6373 60.7815 54.6373 60.7697C54.6373 60.7578 54.6373 60.7459 54.6373 60.7341C54.6373 60.7222 54.6373 60.7104 54.6373 60.6986C54.6373 60.6867 54.6373 60.6749 54.6373 60.6631C54.6373 60.6513 54.6373 60.6395 54.6373 60.6277C54.6373 60.6159 54.6373 60.6042 54.6373 60.5924C54.6373 60.5806 54.6373 60.5689 54.6373 60.5571C54.6373 60.5454 54.6373 60.5336 54.6373 60.5219C54.6373 60.5102 54.6373 60.4985 54.6373 60.4868C54.6373 60.4751 54.6373 60.4634 54.6373 60.4517C54.6373 60.44 54.6373 60.4283 54.6373 60.4167C54.6373 60.405 54.6373 60.3934 54.6373 60.3817C54.6373 60.3701 54.6373 60.3585 54.6373 60.3468C54.6373 60.3352 54.6373 60.3236 54.6373 60.312C54.6373 60.3004 54.6373 60.2888 54.6373 60.2773C54.6373 60.2657 54.6373 60.2541 54.6373 60.2426C54.6373 60.231 54.6373 60.2195 54.6373 60.208C54.6373 60.1964 54.6373 60.1849 54.6373 60.1734C54.6373 60.1619 54.6373 60.1504 54.6373 60.139C54.6373 60.1275 54.6373 60.116 54.6373 60.1045C54.6373 60.0931 54.6373 60.0816 54.6373 60.0702C54.6373 60.0588 54.6373 60.0474 54.6373 60.0359C54.6373 60.0245 54.6373 60.0131 54.6373 60.0017C54.6373 59.9904 54.6373 59.979 54.6373 59.9676C54.6373 59.9563 54.6373 59.9449 54.6373 59.9336C54.6373 59.9222 54.6373 59.9109 54.6373 59.8996C54.6373 59.8883 54.6373 59.877 54.6373 59.8657C54.6373 59.8544 54.6373 59.8431 54.6373 59.8319C54.6373 59.8206 54.6373 59.8093 54.6373 59.7981C54.6373 59.7869 54.6373 59.7756 54.6373 59.7644C54.6373 59.7532 54.6373 59.742 54.6373 59.7308C54.6373 59.7196 54.6373 59.7085 54.6373 59.6973C54.6373 59.6861 54.6373 59.675 54.6373 59.6638C54.6373 59.6527 54.6373 59.6416 54.6373 59.6305C54.6373 59.6194 54.6373 59.6083 54.6373 59.5972C54.6373 59.5861 54.6373 59.575 54.6373 59.5639C54.6373 59.5529 54.6373 59.5418 54.6373 59.5308C54.6373 59.5198 54.6373 59.5087 54.6373 59.4977C54.6373 59.4867 54.6373 59.4757 54.6373 59.4648C54.6373 59.4538 54.6373 59.4428 54.6373 59.4319C54.6373 59.4209 54.6373 59.41 54.6373 59.399C54.6373 59.3881 54.6373 59.3772 54.6373 59.3663C54.6373 59.3554 54.6373 59.3445 54.6373 59.3336C54.6373 59.3228 54.6373 59.3119 54.6373 59.3011C54.6373 59.2902 54.6373 59.2794 54.6373 59.2686C54.6373 59.2577 54.6373 59.2469 54.6373 59.2361C54.6373 59.2254 54.6373 59.2146 54.6373 59.2038C54.6373 59.1931 54.6373 59.1823 54.6373 59.1716C54.6373 59.1608 54.6373 59.1501 54.6373 59.1394C54.6373 59.1287 54.6373 59.118 54.6373 59.1073C54.6373 59.0967 54.6373 59.086 54.6373 59.0754C54.6373 59.0647 54.6373 59.0541 54.6373 59.0435C54.6373 59.0328 54.6373 59.0222 54.6373 59.0116C54.6373 59.0011 54.6373 58.9905 54.6373 58.9799C54.6373 58.9694 54.6373 58.9588 54.6373 58.9483C54.6373 58.9377 54.6373 58.9272 54.6373 58.9167C54.6373 58.9062 54.6373 58.8957 54.6373 58.8853C54.6373 58.8748 54.6373 58.8643 54.6373 58.8539C54.6373 58.8435 54.6373 58.833 54.6373 58.8226C54.6373 58.8122 54.6373 58.8018 54.6373 58.7914C54.6373 58.781 54.6373 58.7707 54.6373 58.7603C54.6373 58.75 54.6373 58.7396 54.6373 58.7293C54.6373 58.719 54.6373 58.7087 54.6373 58.6984C54.6373 58.6881 54.6373 58.6778 54.6373 58.6676C54.6373 58.6573 54.6373 58.6471 54.6373 58.6368C54.6373 58.6266 54.6373 58.6164 54.6373 58.6062C54.6373 58.596 54.6373 58.5858 54.6373 58.5757C54.6373 58.5655 54.6373 58.5553 54.6373 58.5452C54.6373 58.5351 54.6373 58.525 54.6373 58.5149C54.6373 58.5048 54.6373 58.4947 54.6373 58.4846C54.6373 58.4745 54.6373 58.4645 54.6373 58.4544C54.6373 58.4444 54.6373 58.4344 54.6373 58.4244C54.6373 58.4144 54.6373 58.4044 54.6373 58.3944C54.6373 58.3844 54.6373 58.3745 54.6373 58.3645C54.6373 58.3546 54.6373 58.3447 54.6373 58.3348C54.6373 58.3249 54.6373 58.315 54.6373 58.3051C54.6373 58.2952 54.6373 58.2854 54.6373 58.2755C54.6373 58.2657 54.6373 58.2559 54.6373 58.2461C54.6373 58.2363 54.6373 58.2265 54.6373 58.2167C54.6373 58.2069 54.6373 58.1972 54.6373 58.1874C54.6373 58.1777 54.6373 58.168 54.6373 58.1582C54.6373 58.1485 54.6373 58.1389 54.6373 58.1292C54.6373 58.1195 54.6373 58.1099 54.6373 58.1002C54.6373 58.0906 54.6373 58.081 54.6373 58.0714C54.6373 58.0617 54.6373 58.0522 54.6373 58.0426C54.6373 58.033 54.6373 58.0235 54.6373 58.0139C54.6373 58.0044 54.6373 57.9949 54.6373 57.9854C54.6373 57.9759 54.6373 57.9664 54.6373 57.9569C54.6373 57.9475 54.6373 57.938 54.6373 57.9286C54.6373 57.9192 54.6373 57.9098 54.6373 57.9004C54.6373 57.891 54.6373 57.8816 54.6373 57.8722C54.6373 57.8629 54.6373 57.8536 54.6373 57.8442C54.6373 57.8349 54.6373 57.8256 54.6373 57.8163C54.6373 57.807 54.6373 57.7978 54.6373 57.7885C54.6373 57.7793 54.6373 57.77 54.6373 57.7608C54.6373 57.7516 54.6373 57.7424 54.6373 57.7332C54.6373 57.7241 54.6373 57.7149 54.6373 57.7058C54.6373 57.6966 54.6373 57.6875 54.6373 57.6784C54.6373 57.6693 54.6373 57.6602 54.6373 57.6511C54.6373 57.6421 54.6373 57.633 54.6373 57.624C54.6373 57.615 54.6373 57.606 54.6373 57.597C54.6373 57.588 54.6373 57.579 54.6373 57.5701C54.6373 57.5611 54.6373 57.5522 54.6373 57.5433C54.6373 57.5343 54.6373 57.5254 54.6373 57.5166C54.6373 57.5077 54.6373 57.4988 54.6373 57.49C54.6373 57.4811 54.6373 57.4723 54.6373 57.4635C54.6373 57.4547 54.6373 57.4459 54.6373 57.4372C54.6373 57.4284 54.6373 57.4197 54.6373 57.4109C54.6373 57.4022 54.6373 57.3935 54.6373 57.3848C54.6373 57.3761 54.6373 57.3675 54.6373 57.3588C54.6373 57.3502 54.6373 57.3416 54.6373 57.3329C54.6373 57.3243 54.6373 57.3157 54.6373 57.3072C54.6373 57.2986 54.6373 57.2901 54.6373 57.2815C54.6373 57.273 54.6373 57.2645 54.6373 57.256C54.6373 57.2475 54.6373 57.239 54.6373 57.2306C54.6373 57.2221 54.6373 57.2137 54.6373 57.2053C54.6373 57.1969 54.6373 57.1885 54.6373 57.1801C54.6373 57.1718 54.6373 57.1634 54.6373 57.1551C54.6373 57.1468 54.6373 57.1385 54.6373 57.1302C54.6373 57.1219 54.6373 57.1136 54.6373 57.1054C54.6373 57.0971 54.6373 57.0889 54.6373 57.0807C54.6373 57.0725 54.6373 57.0643 54.6373 57.0561C54.6373 57.048 54.6373 57.0398 54.6373 57.0317C54.6373 57.0236 54.6373 57.0155 54.6373 57.0074C54.6373 56.9993 54.6373 56.9912 54.6373 56.9832C54.6373 56.9751 54.6373 56.9671 54.6373 56.9591C54.6373 56.9511 54.6373 56.9431 54.6373 56.9352C54.6373 56.9272 54.6373 56.9193 54.6373 56.9114C54.6373 56.9035 54.6373 56.8956 54.6373 56.8877C54.6373 56.8798 54.6373 56.872 54.6373 56.8641C54.6373 56.8563 54.6373 56.8485 54.6373 56.8407C54.6373 56.8329 54.6373 56.8251 54.6373 56.8174C54.6373 56.8097 54.6373 56.8019 54.6373 56.7942C54.6373 56.7865 54.6373 56.7788 54.6373 56.7712C54.6373 56.7635 54.6373 56.7559 54.6373 56.7483C54.6373 56.7407 54.6373 56.7331 54.6373 56.7255C54.6373 56.7179 54.6373 56.7104 54.6373 56.7028C54.6373 56.6953 54.6373 56.6878 54.6373 56.6803C54.6373 56.6728 54.6373 56.6654 54.6373 56.6579C54.6373 56.6505 54.6373 56.6431 54.6373 56.6357C54.6373 56.6283 54.6373 56.6209 54.6373 56.6135C54.6373 56.6062 54.6373 56.5989 54.6373 56.5915C54.6373 56.5842 54.6373 56.5769 54.6373 56.5697C54.6373 56.5624 54.6373 56.5552 54.6373 56.548C54.6373 56.5407 54.6373 56.5335 54.6373 56.5264C54.6373 56.5192 54.6373 56.512 54.6373 56.5049C54.6373 56.4978 54.6373 56.4907 54.6373 56.4836C54.6373 56.4765 54.6373 56.4695 54.6373 56.4624C54.6373 56.4554 54.6373 56.4484 54.6373 56.4414C54.6373 56.4344 54.6373 56.4274 54.6373 56.4205C54.6373 56.4135 54.6373 56.4066 54.6373 56.3997C54.6373 56.3928 54.6373 56.3859 54.6373 56.3791C54.6373 56.3722 54.6373 56.3654 54.6373 56.3586C54.6373 56.3518 54.6373 56.345 54.6373 56.3382C54.6373 56.3315 54.6373 56.3247 54.6373 56.318C54.6373 56.3113 54.6373 56.3046 54.6373 56.2979C54.6373 56.2913 54.6373 56.2846 54.6373 56.278C54.6373 56.2714 54.6373 56.2648 54.6373 56.2582C54.6373 56.2516 54.6373 56.2451 54.6373 56.2386C54.6373 56.232 54.6373 56.2255 54.6373 56.2191C54.6373 56.2126 54.6373 56.2061 54.6373 56.1997C54.6373 56.1933 54.6373 56.1869 54.6373 56.1805C54.6373 56.1741 54.6373 56.1678 54.6373 56.1614C54.6373 56.1551 54.6373 56.1488 54.6373 56.1425C54.6373 56.1362 54.6373 56.1299 54.6373 56.1237C54.6373 56.1175 54.6373 56.1113 54.6373 56.1051C54.6373 56.0989 54.6373 56.0927 54.6373 56.0866C54.6373 56.0804 54.6373 56.0743 54.6373 56.0682C54.6373 56.0621 54.6373 56.0561 54.6373 56.05C54.6373 56.044 54.6373 56.038 54.6373 56.032C54.6373 56.026 54.6373 56.02 54.6373 56.0141H53.1373C53.1373 56.02 53.1373 56.026 53.1373 56.032C53.1373 56.038 53.1373 56.044 53.1373 56.05C53.1373 56.0561 53.1373 56.0621 53.1373 56.0682C53.1373 56.0743 53.1373 56.0804 53.1373 56.0866C53.1373 56.0927 53.1373 56.0989 53.1373 56.1051C53.1373 56.1113 53.1373 56.1175 53.1373 56.1237C53.1373 56.1299 53.1373 56.1362 53.1373 56.1425C53.1373 56.1488 53.1373 56.1551 53.1373 56.1614C53.1373 56.1678 53.1373 56.1741 53.1373 56.1805C53.1373 56.1869 53.1373 56.1933 53.1373 56.1997C53.1373 56.2061 53.1373 56.2126 53.1373 56.2191C53.1373 56.2255 53.1373 56.232 53.1373 56.2386C53.1373 56.2451 53.1373 56.2516 53.1373 56.2582C53.1373 56.2648 53.1373 56.2714 53.1373 56.278C53.1373 56.2846 53.1373 56.2913 53.1373 56.2979C53.1373 56.3046 53.1373 56.3113 53.1373 56.318C53.1373 56.3247 53.1373 56.3315 53.1373 56.3382C53.1373 56.345 53.1373 56.3518 53.1373 56.3586C53.1373 56.3654 53.1373 56.3722 53.1373 56.3791C53.1373 56.3859 53.1373 56.3928 53.1373 56.3997C53.1373 56.4066 53.1373 56.4135 53.1373 56.4205C53.1373 56.4274 53.1373 56.4344 53.1373 56.4414C53.1373 56.4484 53.1373 56.4554 53.1373 56.4624C53.1373 56.4695 53.1373 56.4765 53.1373 56.4836C53.1373 56.4907 53.1373 56.4978 53.1373 56.5049C53.1373 56.512 53.1373 56.5192 53.1373 56.5264C53.1373 56.5335 53.1373 56.5407 53.1373 56.548C53.1373 56.5552 53.1373 56.5624 53.1373 56.5697C53.1373 56.5769 53.1373 56.5842 53.1373 56.5915C53.1373 56.5989 53.1373 56.6062 53.1373 56.6135C53.1373 56.6209 53.1373 56.6283 53.1373 56.6357C53.1373 56.6431 53.1373 56.6505 53.1373 56.6579C53.1373 56.6654 53.1373 56.6728 53.1373 56.6803C53.1373 56.6878 53.1373 56.6953 53.1373 56.7028C53.1373 56.7104 53.1373 56.7179 53.1373 56.7255C53.1373 56.7331 53.1373 56.7407 53.1373 56.7483C53.1373 56.7559 53.1373 56.7635 53.1373 56.7712C53.1373 56.7788 53.1373 56.7865 53.1373 56.7942C53.1373 56.8019 53.1373 56.8097 53.1373 56.8174C53.1373 56.8251 53.1373 56.8329 53.1373 56.8407C53.1373 56.8485 53.1373 56.8563 53.1373 56.8641C53.1373 56.872 53.1373 56.8798 53.1373 56.8877C53.1373 56.8956 53.1373 56.9035 53.1373 56.9114C53.1373 56.9193 53.1373 56.9272 53.1373 56.9352C53.1373 56.9431 53.1373 56.9511 53.1373 56.9591C53.1373 56.9671 53.1373 56.9751 53.1373 56.9832C53.1373 56.9912 53.1373 56.9993 53.1373 57.0074C53.1373 57.0155 53.1373 57.0236 53.1373 57.0317C53.1373 57.0398 53.1373 57.048 53.1373 57.0561C53.1373 57.0643 53.1373 57.0725 53.1373 57.0807C53.1373 57.0889 53.1373 57.0971 53.1373 57.1054C53.1373 57.1136 53.1373 57.1219 53.1373 57.1302C53.1373 57.1385 53.1373 57.1468 53.1373 57.1551C53.1373 57.1634 53.1373 57.1718 53.1373 57.1801C53.1373 57.1885 53.1373 57.1969 53.1373 57.2053C53.1373 57.2137 53.1373 57.2221 53.1373 57.2306C53.1373 57.239 53.1373 57.2475 53.1373 57.256C53.1373 57.2645 53.1373 57.273 53.1373 57.2815C53.1373 57.2901 53.1373 57.2986 53.1373 57.3072C53.1373 57.3157 53.1373 57.3243 53.1373 57.3329C53.1373 57.3416 53.1373 57.3502 53.1373 57.3588C53.1373 57.3675 53.1373 57.3761 53.1373 57.3848C53.1373 57.3935 53.1373 57.4022 53.1373 57.4109C53.1373 57.4197 53.1373 57.4284 53.1373 57.4372C53.1373 57.4459 53.1373 57.4547 53.1373 57.4635C53.1373 57.4723 53.1373 57.4811 53.1373 57.49C53.1373 57.4988 53.1373 57.5077 53.1373 57.5166C53.1373 57.5254 53.1373 57.5343 53.1373 57.5433C53.1373 57.5522 53.1373 57.5611 53.1373 57.5701C53.1373 57.579 53.1373 57.588 53.1373 57.597C53.1373 57.606 53.1373 57.615 53.1373 57.624C53.1373 57.633 53.1373 57.6421 53.1373 57.6511C53.1373 57.6602 53.1373 57.6693 53.1373 57.6784C53.1373 57.6875 53.1373 57.6966 53.1373 57.7058C53.1373 57.7149 53.1373 57.7241 53.1373 57.7332C53.1373 57.7424 53.1373 57.7516 53.1373 57.7608C53.1373 57.77 53.1373 57.7793 53.1373 57.7885C53.1373 57.7978 53.1373 57.807 53.1373 57.8163C53.1373 57.8256 53.1373 57.8349 53.1373 57.8442C53.1373 57.8536 53.1373 57.8629 53.1373 57.8722C53.1373 57.8816 53.1373 57.891 53.1373 57.9004C53.1373 57.9098 53.1373 57.9192 53.1373 57.9286C53.1373 57.938 53.1373 57.9475 53.1373 57.9569C53.1373 57.9664 53.1373 57.9759 53.1373 57.9854C53.1373 57.9949 53.1373 58.0044 53.1373 58.0139C53.1373 58.0235 53.1373 58.033 53.1373 58.0426C53.1373 58.0522 53.1373 58.0617 53.1373 58.0714C53.1373 58.081 53.1373 58.0906 53.1373 58.1002C53.1373 58.1099 53.1373 58.1195 53.1373 58.1292C53.1373 58.1389 53.1373 58.1485 53.1373 58.1582C53.1373 58.168 53.1373 58.1777 53.1373 58.1874C53.1373 58.1972 53.1373 58.2069 53.1373 58.2167C53.1373 58.2265 53.1373 58.2363 53.1373 58.2461C53.1373 58.2559 53.1373 58.2657 53.1373 58.2755C53.1373 58.2854 53.1373 58.2952 53.1373 58.3051C53.1373 58.315 53.1373 58.3249 53.1373 58.3348C53.1373 58.3447 53.1373 58.3546 53.1373 58.3645C53.1373 58.3745 53.1373 58.3844 53.1373 58.3944C53.1373 58.4044 53.1373 58.4144 53.1373 58.4244C53.1373 58.4344 53.1373 58.4444 53.1373 58.4544C53.1373 58.4645 53.1373 58.4745 53.1373 58.4846C53.1373 58.4947 53.1373 58.5048 53.1373 58.5149C53.1373 58.525 53.1373 58.5351 53.1373 58.5452C53.1373 58.5553 53.1373 58.5655 53.1373 58.5757C53.1373 58.5858 53.1373 58.596 53.1373 58.6062C53.1373 58.6164 53.1373 58.6266 53.1373 58.6368C53.1373 58.6471 53.1373 58.6573 53.1373 58.6676C53.1373 58.6778 53.1373 58.6881 53.1373 58.6984C53.1373 58.7087 53.1373 58.719 53.1373 58.7293C53.1373 58.7396 53.1373 58.75 53.1373 58.7603C53.1373 58.7707 53.1373 58.781 53.1373 58.7914C53.1373 58.8018 53.1373 58.8122 53.1373 58.8226C53.1373 58.833 53.1373 58.8435 53.1373 58.8539C53.1373 58.8643 53.1373 58.8748 53.1373 58.8853C53.1373 58.8957 53.1373 58.9062 53.1373 58.9167C53.1373 58.9272 53.1373 58.9377 53.1373 58.9483C53.1373 58.9588 53.1373 58.9694 53.1373 58.9799C53.1373 58.9905 53.1373 59.0011 53.1373 59.0116C53.1373 59.0222 53.1373 59.0328 53.1373 59.0435C53.1373 59.0541 53.1373 59.0647 53.1373 59.0754C53.1373 59.086 53.1373 59.0967 53.1373 59.1073C53.1373 59.118 53.1373 59.1287 53.1373 59.1394C53.1373 59.1501 53.1373 59.1608 53.1373 59.1716C53.1373 59.1823 53.1373 59.1931 53.1373 59.2038C53.1373 59.2146 53.1373 59.2254 53.1373 59.2361C53.1373 59.2469 53.1373 59.2577 53.1373 59.2686C53.1373 59.2794 53.1373 59.2902 53.1373 59.3011C53.1373 59.3119 53.1373 59.3228 53.1373 59.3336C53.1373 59.3445 53.1373 59.3554 53.1373 59.3663C53.1373 59.3772 53.1373 59.3881 53.1373 59.399C53.1373 59.41 53.1373 59.4209 53.1373 59.4319C53.1373 59.4428 53.1373 59.4538 53.1373 59.4648C53.1373 59.4757 53.1373 59.4867 53.1373 59.4977C53.1373 59.5087 53.1373 59.5198 53.1373 59.5308C53.1373 59.5418 53.1373 59.5529 53.1373 59.5639C53.1373 59.575 53.1373 59.5861 53.1373 59.5972C53.1373 59.6083 53.1373 59.6194 53.1373 59.6305C53.1373 59.6416 53.1373 59.6527 53.1373 59.6638C53.1373 59.675 53.1373 59.6861 53.1373 59.6973C53.1373 59.7085 53.1373 59.7196 53.1373 59.7308C53.1373 59.742 53.1373 59.7532 53.1373 59.7644C53.1373 59.7756 53.1373 59.7869 53.1373 59.7981C53.1373 59.8093 53.1373 59.8206 53.1373 59.8319C53.1373 59.8431 53.1373 59.8544 53.1373 59.8657C53.1373 59.877 53.1373 59.8883 53.1373 59.8996C53.1373 59.9109 53.1373 59.9222 53.1373 59.9336C53.1373 59.9449 53.1373 59.9563 53.1373 59.9676C53.1373 59.979 53.1373 59.9904 53.1373 60.0017C53.1373 60.0131 53.1373 60.0245 53.1373 60.0359C53.1373 60.0474 53.1373 60.0588 53.1373 60.0702C53.1373 60.0816 53.1373 60.0931 53.1373 60.1045C53.1373 60.116 53.1373 60.1275 53.1373 60.139C53.1373 60.1504 53.1373 60.1619 53.1373 60.1734C53.1373 60.1849 53.1373 60.1964 53.1373 60.208C53.1373 60.2195 53.1373 60.231 53.1373 60.2426C53.1373 60.2541 53.1373 60.2657 53.1373 60.2773C53.1373 60.2888 53.1373 60.3004 53.1373 60.312C53.1373 60.3236 53.1373 60.3352 53.1373 60.3468C53.1373 60.3585 53.1373 60.3701 53.1373 60.3817C53.1373 60.3934 53.1373 60.405 53.1373 60.4167C53.1373 60.4283 53.1373 60.44 53.1373 60.4517C53.1373 60.4634 53.1373 60.4751 53.1373 60.4868C53.1373 60.4985 53.1373 60.5102 53.1373 60.5219C53.1373 60.5336 53.1373 60.5454 53.1373 60.5571C53.1373 60.5689 53.1373 60.5806 53.1373 60.5924C53.1373 60.6042 53.1373 60.6159 53.1373 60.6277C53.1373 60.6395 53.1373 60.6513 53.1373 60.6631C53.1373 60.6749 53.1373 60.6867 53.1373 60.6986C53.1373 60.7104 53.1373 60.7222 53.1373 60.7341C53.1373 60.7459 53.1373 60.7578 53.1373 60.7697C53.1373 60.7815 53.1373 60.7934 53.1373 60.8053C53.1373 60.8172 53.1373 60.8291 53.1373 60.841C53.1373 60.8529 53.1373 60.8649 53.1373 60.8768C53.1373 60.8887 53.1373 60.9007 53.1373 60.9126C53.1373 60.9245 53.1373 60.9365 53.1373 60.9485C53.1373 60.9604 53.1373 60.9724 53.1373 60.9844C53.1373 60.9964 53.1373 61.0084 53.1373 61.0204C53.1373 61.0324 53.1373 61.0444 53.1373 61.0565C53.1373 61.0685 53.1373 61.0805 53.1373 61.0926C53.1373 61.1046 53.1373 61.1167 53.1373 61.1287C53.1373 61.1408 53.1373 61.1529 53.1373 61.1649C53.1373 61.177 53.1373 61.1891 53.1373 61.2012C53.1373 61.2133 53.1373 61.2254 53.1373 61.2375C53.1373 61.2496 53.1373 61.2618 53.1373 61.2739C53.1373 61.286 53.1373 61.2982 53.1373 61.3103C53.1373 61.3225 53.1373 61.3347 53.1373 61.3468C53.1373 61.359 53.1373 61.3712 53.1373 61.3834C53.1373 61.3955 53.1373 61.4077 53.1373 61.4199C53.1373 61.4321 53.1373 61.4444 53.1373 61.4566C53.1373 61.4688 53.1373 61.481 53.1373 61.4933C53.1373 61.5055 53.1373 61.5178 53.1373 61.53C53.1373 61.5423 53.1373 61.5545 53.1373 61.5668C53.1373 61.5791 53.1373 61.5913 53.1373 61.6036C53.1373 61.6159 53.1373 61.6282 53.1373 61.6405C53.1373 61.6528 53.1373 61.6651 53.1373 61.6774C53.1373 61.6898 53.1373 61.7021 53.1373 61.7144C53.1373 61.7268 53.1373 61.7391 53.1373 61.7515C53.1373 61.7638 53.1373 61.7762 53.1373 61.7885C53.1373 61.8009 53.1373 61.8133 53.1373 61.8256C53.1373 61.838 53.1373 61.8504 53.1373 61.8628C53.1373 61.8752 53.1373 61.8876 53.1373 61.9C53.1373 61.9124 53.1373 61.9248 53.1373 61.9373C53.1373 61.9497 53.1373 61.9621 53.1373 61.9746C53.1373 61.987 53.1373 61.9995 53.1373 62.0119C53.1373 62.0244 53.1373 62.0368 53.1373 62.0493C53.1373 62.0618 53.1373 62.0742 53.1373 62.0867C53.1373 62.0992 53.1373 62.1117 53.1373 62.1242C53.1373 62.1367 53.1373 62.1492 53.1373 62.1617C53.1373 62.1742 53.1373 62.1867 53.1373 62.1992C53.1373 62.2118 53.1373 62.2243 53.1373 62.2368C53.1373 62.2494 53.1373 62.2619 53.1373 62.2744C53.1373 62.287 53.1373 62.2995 53.1373 62.3121C53.1373 62.3247 53.1373 62.3372 53.1373 62.3498C53.1373 62.3624 53.1373 62.375 53.1373 62.3876C53.1373 62.4001 53.1373 62.4127 53.1373 62.4253C53.1373 62.4379 53.1373 62.4505 53.1373 62.4631C53.1373 62.4758 53.1373 62.4884 53.1373 62.501C53.1373 62.5136 53.1373 62.5263 53.1373 62.5389C53.1373 62.5515 53.1373 62.5642 53.1373 62.5768C53.1373 62.5895 53.1373 62.6021 53.1373 62.6148C53.1373 62.6274 53.1373 62.6401 53.1373 62.6528C53.1373 62.6654 53.1373 62.6781 53.1373 62.6908C53.1373 62.7035 53.1373 62.7162 53.1373 62.7288C53.1373 62.7415 53.1373 62.7542 53.1373 62.7669C53.1373 62.7796 53.1373 62.7923 53.1373 62.8051C53.1373 62.8178 53.1373 62.8305 53.1373 62.8432C53.1373 62.8559 53.1373 62.8687 53.1373 62.8814C53.1373 62.8941 53.1373 62.9069 53.1373 62.9196C53.1373 62.9324 53.1373 62.9451 53.1373 62.9579C53.1373 62.9706 53.1373 62.9834 53.1373 62.9961C53.1373 63.0089 53.1373 63.0217 53.1373 63.0344C53.1373 63.0472 53.1373 63.06 53.1373 63.0728C53.1373 63.0856 53.1373 63.0984 53.1373 63.1111C53.1373 63.1239 53.1373 63.1367 53.1373 63.1495C53.1373 63.1623 53.1373 63.1751 53.1373 63.188C53.1373 63.2008 53.1373 63.2136 53.1373 63.2264C53.1373 63.2392 53.1373 63.252 53.1373 63.2649C53.1373 63.2777 53.1373 63.2905 53.1373 63.3034C53.1373 63.3162 53.1373 63.329 53.1373 63.3419C53.1373 63.3547 53.1373 63.3676 53.1373 63.3804C53.1373 63.3933 53.1373 63.4061 53.1373 63.419C53.1373 63.4318 53.1373 63.4447 53.1373 63.4576C53.1373 63.4704 53.1373 63.4833 53.1373 63.4962C53.1373 63.5091 53.1373 63.5219 53.1373 63.5348C53.1373 63.5477 53.1373 63.5606 53.1373 63.5735C53.1373 63.5864 53.1373 63.5993 53.1373 63.6122C53.1373 63.6251 53.1373 63.638 53.1373 63.6509C53.1373 63.6638 53.1373 63.6767 53.1373 63.6896C53.1373 63.7025 53.1373 63.7154 53.1373 63.7283C53.1373 63.7412 53.1373 63.7542 53.1373 63.7671C53.1373 63.78 53.1373 63.7929 53.1373 63.8059C53.1373 63.8188 53.1373 63.8317 53.1373 63.8447C53.1373 63.8576 53.1373 63.8705 53.1373 63.8835C53.1373 63.8964 53.1373 63.9093 53.1373 63.9223C53.1373 63.9352 53.1373 63.9482 53.1373 63.9611C53.1373 63.9741 53.1373 63.987 53.1373 64C53.1373 64.013 53.1373 64.0259 53.1373 64.0389C53.1373 64.0518 53.1373 64.0648 53.1373 64.0778C53.1373 64.0907 53.1373 64.1037 53.1373 64.1167C53.1373 64.1297 53.1373 64.1426 53.1373 64.1556C53.1373 64.1686 53.1373 64.1816 53.1373 64.1945C53.1373 64.2075 53.1373 64.2205 53.1373 64.2335C53.1373 64.2465 53.1373 64.2595 53.1373 64.2724C53.1373 64.2854 53.1373 64.2984 53.1373 64.3114C53.1373 64.3244 53.1373 64.3374 53.1373 64.3504C53.1373 64.3634 53.1373 64.3764 53.1373 64.3894C53.1373 64.4024 53.1373 64.4154 53.1373 64.4284C53.1373 64.4414 53.1373 64.4544 53.1373 64.4674C53.1373 64.4804 53.1373 64.4934 53.1373 64.5064C53.1373 64.5194 53.1373 64.5324 53.1373 64.5455C53.1373 64.5585 53.1373 64.5715 53.1373 64.5845C53.1373 64.5975 53.1373 64.6105 53.1373 64.6235C53.1373 64.6366 53.1373 64.6496 53.1373 64.6626C53.1373 64.6756 53.1373 64.6886 53.1373 64.7017C53.1373 64.7147 53.1373 64.7277 53.1373 64.7407C53.1373 64.7538 53.1373 64.7668 53.1373 64.7798C53.1373 64.7928 53.1373 64.8059 53.1373 64.8189C53.1373 64.8319 53.1373 64.8449 53.1373 64.858C53.1373 64.871 53.1373 64.884 53.1373 64.897C53.1373 64.9101 53.1373 64.9231 53.1373 64.9361C53.1373 64.9492 53.1373 64.9622 53.1373 64.9752C53.1373 64.9883 53.1373 65.0013 53.1373 65.0143C53.1373 65.0274 53.1373 65.0404 53.1373 65.0534C53.1373 65.0665 53.1373 65.0795 53.1373 65.0925C53.1373 65.1056 53.1373 65.1186 53.1373 65.1316C53.1373 65.1447 53.1373 65.1577 53.1373 65.1707C53.1373 65.1838 53.1373 65.1968 53.1373 65.2098C53.1373 65.2229 53.1373 65.2359 53.1373 65.2489C53.1373 65.2619 53.1373 65.275 53.1373 65.288C53.1373 65.301 53.1373 65.3141 53.1373 65.3271C53.1373 65.3401 53.1373 65.3532 53.1373 65.3662C53.1373 65.3792 53.1373 65.3923 53.1373 65.4053C53.1373 65.4183 53.1373 65.4314 53.1373 65.4444C53.1373 65.4574 53.1373 65.4704 53.1373 65.4835C53.1373 65.4965 53.1373 65.5095 53.1373 65.5225C53.1373 65.5356 53.1373 65.5486 53.1373 65.5616C53.1373 65.5746 53.1373 65.5877 53.1373 65.6007C53.1373 65.6137 53.1373 65.6267 53.1373 65.6398C53.1373 65.6528 53.1373 65.6658 53.1373 65.6788C53.1373 65.6918 53.1373 65.7048 53.1373 65.7179C53.1373 65.7309 53.1373 65.7439 53.1373 65.7569C53.1373 65.7699 53.1373 65.7829 53.1373 65.7959C53.1373 65.8089 53.1373 65.822 53.1373 65.835C53.1373 65.848 53.1373 65.861 53.1373 65.874C53.1373 65.887 53.1373 65.9 53.1373 65.913C53.1373 65.926 53.1373 65.939 53.1373 65.952C53.1373 65.965 53.1373 65.978 53.1373 65.991C53.1373 66.004 53.1373 66.017 53.1373 66.0299C53.1373 66.0429 53.1373 66.0559 53.1373 66.0689C53.1373 66.0819 53.1373 66.0949 53.1373 66.1079C53.1373 66.1208 53.1373 66.1338 53.1373 66.1468C53.1373 66.1598 53.1373 66.1728 53.1373 66.1857C53.1373 66.1987 53.1373 66.2117 53.1373 66.2246C53.1373 66.2376 53.1373 66.2506 53.1373 66.2635C53.1373 66.2765 53.1373 66.2895 53.1373 66.3024C53.1373 66.3154 53.1373 66.3283 53.1373 66.3413C53.1373 66.3542 53.1373 66.3672 53.1373 66.3801C53.1373 66.3931 53.1373 66.406 53.1373 66.419C53.1373 66.4319 53.1373 66.4449 53.1373 66.4578C53.1373 66.4707 53.1373 66.4837 53.1373 66.4966C53.1373 66.5095 53.1373 66.5225 53.1373 66.5354C53.1373 66.5483 53.1373 66.5612 53.1373 66.5741C53.1373 66.5871 53.1373 66.6 53.1373 66.6129C53.1373 66.6258 53.1373 66.6387 53.1373 66.6516C53.1373 66.6645 53.1373 66.6774 53.1373 66.6903C53.1373 66.7032 53.1373 66.7161 53.1373 66.729C53.1373 66.7419 53.1373 66.7548 53.1373 66.7677C53.1373 66.7806 53.1373 66.7934 53.1373 66.8063C53.1373 66.8192 53.1373 66.8321 53.1373 66.8449C53.1373 66.8578 53.1373 66.8707 53.1373 66.8835C53.1373 66.8964 53.1373 66.9093 53.1373 66.9221C53.1373 66.935 53.1373 66.9478 53.1373 66.9607C53.1373 66.9735 53.1373 66.9864 53.1373 66.9992C53.1373 67.012 53.1373 67.0249 53.1373 67.0377C53.1373 67.0505 53.1373 67.0634 53.1373 67.0762C53.1373 67.089 53.1373 67.1018 53.1373 67.1146C53.1373 67.1274 53.1373 67.1402 53.1373 67.1531C53.1373 67.1659 53.1373 67.1787 53.1373 67.1915C53.1373 67.2042 53.1373 67.217 53.1373 67.2298C53.1373 67.2426 53.1373 67.2554 53.1373 67.2682C53.1373 67.2809 53.1373 67.2937 53.1373 67.3065C53.1373 67.3193 53.1373 67.332 53.1373 67.3448C53.1373 67.3575 53.1373 67.3703 53.1373 67.383C53.1373 67.3958 53.1373 67.4085 53.1373 67.4213C53.1373 67.434 53.1373 67.4467 53.1373 67.4595C53.1373 67.4722 53.1373 67.4849 53.1373 67.4976C53.1373 67.5103 53.1373 67.5231 53.1373 67.5358C53.1373 67.5485 53.1373 67.5612 53.1373 67.5739C53.1373 67.5866 53.1373 67.5992 53.1373 67.6119C53.1373 67.6246 53.1373 67.6373 53.1373 67.65C53.1373 67.6626 53.1373 67.6753 53.1373 67.688C53.1373 67.7006 53.1373 67.7133 53.1373 67.7259C53.1373 67.7386 53.1373 67.7512 53.1373 67.7639C53.1373 67.7765 53.1373 67.7892 53.1373 67.8018C53.1373 67.8144 53.1373 67.827 53.1373 67.8396C53.1373 67.8523 53.1373 67.8649 53.1373 67.8775C53.1373 67.8901 53.1373 67.9027 53.1373 67.9153C53.1373 67.9279 53.1373 67.9404 53.1373 67.953C53.1373 67.9656 53.1373 67.9782 53.1373 67.9907C53.1373 68.0033 53.1373 68.0159 53.1373 68.0284C53.1373 68.041 53.1373 68.0535 53.1373 68.0661C53.1373 68.0786 53.1373 68.0911 53.1373 68.1037C53.1373 68.1162 53.1373 68.1287 53.1373 68.1412C53.1373 68.1537 53.1373 68.1662 53.1373 68.1787C53.1373 68.1912 53.1373 68.2037 53.1373 68.2162C53.1373 68.2287 53.1373 68.2412 53.1373 68.2537C53.1373 68.2661 53.1373 68.2786 53.1373 68.2911C53.1373 68.3035 53.1373 68.316 53.1373 68.3284C53.1373 68.3409 53.1373 68.3533 53.1373 68.3657C53.1373 68.3782 53.1373 68.3906 53.1373 68.403C53.1373 68.4154 53.1373 68.4278 53.1373 68.4402C53.1373 68.4526 53.1373 68.465 53.1373 68.4774C53.1373 68.4898 53.1373 68.5022 53.1373 68.5145C53.1373 68.5269 53.1373 68.5393 53.1373 68.5516C53.1373 68.564 53.1373 68.5763 53.1373 68.5887C53.1373 68.601 53.1373 68.6133 53.1373 68.6257C53.1373 68.638 53.1373 68.6503 53.1373 68.6626C53.1373 68.6749 53.1373 68.6872 53.1373 68.6995C53.1373 68.7118 53.1373 68.7241 53.1373 68.7364C53.1373 68.7486 53.1373 68.7609 53.1373 68.7732C53.1373 68.7854 53.1373 68.7977 53.1373 68.8099C53.1373 68.8222 53.1373 68.8344 53.1373 68.8466C53.1373 68.8589 53.1373 68.8711 53.1373 68.8833C53.1373 68.8955 53.1373 68.9077 53.1373 68.9199C53.1373 68.9321 53.1373 68.9443 53.1373 68.9565C53.1373 68.9686 53.1373 68.9808 53.1373 68.993C53.1373 69.0051 53.1373 69.0173 53.1373 69.0294C53.1373 69.0415 53.1373 69.0537 53.1373 69.0658C53.1373 69.0779 53.1373 69.09 53.1373 69.1021C53.1373 69.1143 53.1373 69.1263 53.1373 69.1384C53.1373 69.1505 53.1373 69.1626 53.1373 69.1747C53.1373 69.1867 53.1373 69.1988 53.1373 69.2109C53.1373 69.2229 53.1373 69.2349 53.1373 69.247C53.1373 69.259 53.1373 69.271 53.1373 69.283C53.1373 69.2951 53.1373 69.3071 53.1373 69.3191C53.1373 69.3311 53.1373 69.343 53.1373 69.355C53.1373 69.367 53.1373 69.379 53.1373 69.3909C53.1373 69.4029 53.1373 69.4148 53.1373 69.4268C53.1373 69.4387 53.1373 69.4506 53.1373 69.4625C53.1373 69.4745 53.1373 69.4864 53.1373 69.4983C53.1373 69.5102 53.1373 69.522 53.1373 69.5339C53.1373 69.5458 53.1373 69.5577 53.1373 69.5695C53.1373 69.5814 53.1373 69.5932 53.1373 69.6051C53.1373 69.6169 53.1373 69.6287 53.1373 69.6405C53.1373 69.6524 53.1373 69.6642 53.1373 69.676C53.1373 69.6878 53.1373 69.6995 53.1373 69.7113C53.1373 69.7231 53.1373 69.7349 53.1373 69.7466C53.1373 69.7584 53.1373 69.7701 53.1373 69.7819C53.1373 69.7936 53.1373 69.8053 53.1373 69.817C53.1373 69.8287 53.1373 69.8404 53.1373 69.8521C53.1373 69.8638 53.1373 69.8755 53.1373 69.8872C53.1373 69.8988 53.1373 69.9105 53.1373 69.9221C53.1373 69.9338 53.1373 69.9454 53.1373 69.957C53.1373 69.9687 53.1373 69.9803 53.1373 69.9919C53.1373 70.0035 53.1373 70.0151 53.1373 70.0267C53.1373 70.0382 53.1373 70.0498 53.1373 70.0614C53.1373 70.0729 53.1373 70.0845 53.1373 70.096C53.1373 70.1075 53.1373 70.1191 53.1373 70.1306C53.1373 70.1421 53.1373 70.1536 53.1373 70.1651C53.1373 70.1766 53.1373 70.188 53.1373 70.1995C53.1373 70.211 53.1373 70.2224 53.1373 70.2339C53.1373 70.2453 53.1373 70.2567 53.1373 70.2682C53.1373 70.2796 53.1373 70.291 53.1373 70.3024C53.1373 70.3138 53.1373 70.3252 53.1373 70.3365C53.1373 70.3479 53.1373 70.3593 53.1373 70.3706C53.1373 70.3819 53.1373 70.3933 53.1373 70.4046C53.1373 70.4159 53.1373 70.4272 53.1373 70.4385C53.1373 70.4498 53.1373 70.4611 53.1373 70.4724C53.1373 70.4837 53.1373 70.4949 53.1373 70.5062C53.1373 70.5174 53.1373 70.5287 53.1373 70.5399C53.1373 70.5511 53.1373 70.5623 53.1373 70.5735C53.1373 70.5847 53.1373 70.5959 53.1373 70.6071C53.1373 70.6182 53.1373 70.6294 53.1373 70.6406C53.1373 70.6517 53.1373 70.6628 53.1373 70.674C53.1373 70.6851 53.1373 70.6962 53.1373 70.7073C53.1373 70.7184 53.1373 70.7295 53.1373 70.7405C53.1373 70.7516 53.1373 70.7627 53.1373 70.7737C53.1373 70.7847 53.1373 70.7958 53.1373 70.8068C53.1373 70.8178 53.1373 70.8288 53.1373 70.8398C53.1373 70.8508 53.1373 70.8618 53.1373 70.8727C53.1373 70.8837 53.1373 70.8947 53.1373 70.9056C53.1373 70.9165 53.1373 70.9275 53.1373 70.9384C53.1373 70.9493 53.1373 70.9602 53.1373 70.971C53.1373 70.9819 53.1373 70.9928 53.1373 71.0037C53.1373 71.0145 53.1373 71.0254 53.1373 71.0362C53.1373 71.047 53.1373 71.0578 53.1373 71.0686C53.1373 71.0794 53.1373 71.0902 53.1373 71.101C53.1373 71.1118 53.1373 71.1225 53.1373 71.1333C53.1373 71.144 53.1373 71.1547 53.1373 71.1654C53.1373 71.1762 53.1373 71.1869 53.1373 71.1975C53.1373 71.2082 53.1373 71.2189 53.1373 71.2296C53.1373 71.2402 53.1373 71.2509 53.1373 71.2615C53.1373 71.2721 53.1373 71.2827 53.1373 71.2933C53.1373 71.3039 53.1373 71.3145 53.1373 71.3251C53.1373 71.3357 53.1373 71.3462 53.1373 71.3568C53.1373 71.3673 53.1373 71.3778 53.1373 71.3884C53.1373 71.3989 53.1373 71.4094 53.1373 71.4199C53.1373 71.4303 53.1373 71.4408 53.1373 71.4513C53.1373 71.4617 53.1373 71.4721 53.1373 71.4826C53.1373 71.493 53.1373 71.5034 53.1373 71.5138C53.1373 71.5242 53.1373 71.5346 53.1373 71.5449C53.1373 71.5553 53.1373 71.5656 53.1373 71.576C53.1373 71.5863 53.1373 71.5966 53.1373 71.6069C53.1373 71.6172 53.1373 71.6275 53.1373 71.6378C53.1373 71.648 53.1373 71.6583 53.1373 71.6685C53.1373 71.6788 53.1373 71.689 53.1373 71.6992C53.1373 71.7094 53.1373 71.7196 53.1373 71.7298C53.1373 71.74 53.1373 71.7501 53.1373 71.7603C53.1373 71.7704 53.1373 71.7805 53.1373 71.7907C53.1373 71.8008 53.1373 71.8109 53.1373 71.8209C53.1373 71.831 53.1373 71.8411 53.1373 71.8511C53.1373 71.8612 53.1373 71.8712 53.1373 71.8812C53.1373 71.8913 53.1373 71.9013 53.1373 71.9112C53.1373 71.9212 53.1373 71.9312 53.1373 71.9412C53.1373 71.9511 53.1373 71.961 53.1373 71.971C53.1373 71.9809 53.1373 71.9908 53.1373 72.0007C53.1373 72.0106 53.1373 72.0204 53.1373 72.0303C53.1373 72.0401 53.1373 72.05 53.1373 72.0598C53.1373 72.0696 53.1373 72.0794 53.1373 72.0892C53.1373 72.099 53.1373 72.1087 53.1373 72.1185C53.1373 72.1282 53.1373 72.138 53.1373 72.1477C53.1373 72.1574 53.1373 72.1671 53.1373 72.1768C53.1373 72.1865 53.1373 72.1962 53.1373 72.2058C53.1373 72.2155 53.1373 72.2251 53.1373 72.2347C53.1373 72.2443 53.1373 72.2539 53.1373 72.2635C53.1373 72.2731 53.1373 72.2826 53.1373 72.2922C53.1373 72.3017 53.1373 72.3113 53.1373 72.3208C53.1373 72.3303 53.1373 72.3398 53.1373 72.3493C53.1373 72.3587 53.1373 72.3682 53.1373 72.3776C53.1373 72.3871 53.1373 72.3965 53.1373 72.4059C53.1373 72.4153 53.1373 72.4247 53.1373 72.4341C53.1373 72.4434 53.1373 72.4528 53.1373 72.4621C53.1373 72.4715 53.1373 72.4808 53.1373 72.4901C53.1373 72.4994 53.1373 72.5087 53.1373 72.5179C53.1373 72.5272 53.1373 72.5364 53.1373 72.5457C53.1373 72.5549 53.1373 72.5641 53.1373 72.5733C53.1373 72.5825 53.1373 72.5916 53.1373 72.6008C53.1373 72.61 53.1373 72.6191 53.1373 72.6282C53.1373 72.6373 53.1373 72.6464 53.1373 72.6555C53.1373 72.6646 53.1373 72.6736 53.1373 72.6827C53.1373 72.6917 53.1373 72.7007 53.1373 72.7097C53.1373 72.7188 53.1373 72.7277 53.1373 72.7367C53.1373 72.7457 53.1373 72.7546 53.1373 72.7636C53.1373 72.7725 53.1373 72.7814 53.1373 72.7903C53.1373 72.7992 53.1373 72.8081 53.1373 72.8169C53.1373 72.8258 53.1373 72.8346 53.1373 72.8434C53.1373 72.8522 53.1373 72.861 53.1373 72.8698C53.1373 72.8786 53.1373 72.8873 53.1373 72.8961C53.1373 72.9048 53.1373 72.9135 53.1373 72.9222C53.1373 72.9309 53.1373 72.9396 53.1373 72.9483C53.1373 72.9569 53.1373 72.9656 53.1373 72.9742C53.1373 72.9828 53.1373 72.9914 53.1373 73H54.6373ZM54.6373 56.0141C54.6373 54.2531 55.2917 52.0175 55.991 49.9833C56.1635 49.4814 56.3362 48.9984 56.4996 48.5428C56.6623 48.0893 56.8168 47.6599 56.9496 47.2737C57.0819 46.8889 57.1972 46.5335 57.2801 46.228C57.3584 45.9391 57.4261 45.6312 57.4261 45.3662H55.9261C55.9261 45.4181 55.9066 45.5618 55.8324 45.8354C55.7627 46.0924 55.6602 46.4104 55.5311 46.7861C55.4023 47.1606 55.2518 47.5788 55.0877 48.0364C54.9243 48.4919 54.7485 48.9834 54.5724 49.4956C53.8773 51.5177 53.1373 53.9722 53.1373 56.0141H54.6373ZM57.4261 45.3662C57.4261 44.3351 57.595 16.2186 57.6796 2.27215L56.1796 2.26306C56.0951 16.2039 55.9261 44.329 55.9261 45.3662H57.4261ZM57.1818 1.5613L53.6325 0.293694L53.128 1.70631L56.6773 2.97391L57.1818 1.5613ZM53.3803 0.25H26V1.75H53.3803V0.25ZM25.25 1V2.26761H26.75V1H25.25ZM25.25 2.26761V73H26.75V2.26761H25.25Z" fill="#141414"/>
<path d="M29.5 6.56641H50.2102C50.5664 6.56641 50.8552 6.85516 50.8552 7.21136V45.9989C50.8552 46.3551 50.5664 46.6439 50.2102 46.6439H29.5C29.3619 46.6439 29.25 46.5319 29.25 46.3939V6.81641C29.25 6.67834 29.3619 6.56641 29.5 6.56641Z" stroke="#141414" stroke-width="1.5"/>
<path d="M57.5 51.204C58.7676 52.2181 59 53.5884 59 55C59 57.8105 57.1818 60.1562 56.6747 63.9204C56.1883 67.5303 57.1561 72.4999 60.5 72.4999C64.5641 72.4999 65.5 68.5019 65.5 65.4999C65.5 62.9999 66 56 64.5 50.5C63.7192 47.6372 61.238 43.5919 61.238 43.5919M61.238 43.5919L60.5 44L58.5 42L57 42M61.238 43.5919L62 43L59.4493 39.8438L57.1818 39.8438M55.5 48.5H58.5L58.9423 47.3948H59.4493C59.21 48.4375 58.6887 50.6905 58.6887 50.6905L54.5 52.5" stroke="#141414" stroke-width="1.5"/>
</svg>
