<svg width="82" height="72" viewBox="0 0 82 72" fill="none" xmlns="http://www.w3.org/2000/svg">
<circle cx="36" cy="36" r="36" fill="#EAEEF2"/>
<path d="M79.7495 66.0602H32.4995C32.0517 66.0602 31.6895 65.6979 31.6895 65.2502V54.7967C20.4507 54.3692 11.4395 45.0924 11.4395 33.7502C11.4395 22.4079 20.4507 13.1334 31.6895 12.7059V6.75019C31.6895 6.30244 32.0517 5.94019 32.4995 5.94019H79.7495C80.1972 5.94019 80.5595 6.30244 80.5595 6.75019V65.2502C80.5595 65.6979 80.1972 66.0602 79.7495 66.0602ZM73.8095 64.4402H78.9372V7.56018H33.3095V12.7059C44.5482 13.1334 53.5595 22.4079 53.5595 33.7502C53.5595 45.0902 44.5482 54.3669 33.3095 54.7967V64.4402H49.6895V51.7502C49.6895 51.3024 50.0517 50.9402 50.4995 50.9402H59.4995C59.9472 50.9402 60.3095 51.3024 60.3095 51.7502V64.4402H63.1872V36.0002C63.1872 35.5524 63.5495 35.1902 63.9972 35.1902H72.9972C73.445 35.1902 73.8072 35.5524 73.8072 36.0002L73.8095 64.4402ZM64.8095 64.4402H72.1872V36.8102H64.8095V64.4402ZM51.3095 64.4402H58.6872V52.5602H51.3095V64.4402ZM18.4347 47.1579C21.9785 50.8704 26.9735 53.1902 32.4995 53.1902C38.0255 53.1902 43.0227 50.8727 46.5642 47.1557C44.222 43.1462 40.1202 40.2549 35.4852 39.3774C35.1252 39.3099 34.8575 39.0107 34.8282 38.6462C34.799 38.2817 35.0172 37.9442 35.3615 37.8204C38.7995 36.5897 41.1102 33.3294 41.1102 29.7114C41.1102 24.9414 37.229 21.0624 32.4612 21.0624C27.6935 21.0624 23.8122 24.9437 23.8122 29.7114C23.8122 33.3317 26.1207 36.5919 29.5587 37.8204C29.903 37.9442 30.1212 38.2817 30.092 38.6462C30.0627 39.0107 29.795 39.3099 29.435 39.3774C24.782 40.2594 20.8017 43.0787 18.4347 47.1579ZM37.9602 38.3424C41.972 39.6407 45.4595 42.3317 47.6825 45.8777C50.3442 42.5499 51.9372 38.3312 51.9372 33.7502C51.9372 23.0312 43.2185 14.3102 32.4972 14.3102C21.776 14.3102 13.0595 23.0312 13.0595 33.7502C13.0595 38.3312 14.6525 42.5477 17.3165 45.8777C19.553 42.2799 22.9572 39.6294 26.96 38.3402C24.0417 36.4839 22.1945 33.2417 22.1945 29.7092C22.1945 24.0459 26.8002 19.4402 32.4635 19.4402C38.1267 19.4402 42.7325 24.0459 42.7325 29.7092C42.7302 33.2417 40.8807 36.4862 37.9602 38.3424ZM72.9995 30.0602H59.4995V28.4402H72.9995V30.0602ZM72.9995 23.3102H59.4995V21.6902H72.9995V23.3102ZM72.9995 16.5602H59.4995V14.9402H72.9995V16.5602Z" fill="black"/>
</svg>
